<svg width="40" height="40" viewBox="0 0 40 40" fill="none" xmlns="http://www.w3.org/2000/svg">
<path d="M6.70624 19.5627C6.92402 18.2546 7.48469 17.0277 8.33113 16.007C9.17756 14.9862 10.2795 14.2082 11.5246 13.752C12.7697 13.2959 14.1135 13.1781 15.419 13.4105C16.7245 13.6429 17.9451 14.2173 18.9562 15.0752C19.2264 15.3083 19.5713 15.4366 19.9281 15.4366C20.2849 15.4366 20.6299 15.3083 20.9 15.0752C22.3104 13.8278 24.1383 13.1565 26.0208 13.1947C27.9033 13.2328 29.7025 13.9777 31.0612 15.2812C32.4198 16.5848 33.2385 18.3516 33.3545 20.2309C33.4705 22.1102 32.8755 23.9644 31.6875 25.4252C30.9355 26.3466 30.2344 27.3084 29.5875 28.3064L26.1875 33.8627C25.9695 34.2164 25.6641 34.5081 25.3007 34.7095C24.9372 34.911 24.528 35.0154 24.1125 35.0127C23.7879 35.0128 23.4666 34.9477 23.1677 34.8211C22.8688 34.6945 22.5985 34.509 22.3728 34.2757C22.1471 34.0425 21.9707 33.7661 21.854 33.4632C21.7373 33.1603 21.6828 32.8371 21.6937 32.5127L21.7625 30.3814C21.77 30.1384 21.7287 29.8963 21.6411 29.6696C21.5535 29.4428 21.4212 29.2359 21.2523 29.0611C21.0833 28.8863 20.881 28.7471 20.6573 28.6519C20.4336 28.5566 20.1931 28.5071 19.95 28.5064C19.7063 28.5063 19.4652 28.5551 19.2407 28.65C19.0163 28.7449 18.8133 28.8839 18.6436 29.0588C18.474 29.2337 18.3412 29.4409 18.2532 29.6681C18.1652 29.8953 18.1237 30.1379 18.1312 30.3814L18.2 32.5127C18.2109 32.8371 18.1564 33.1603 18.0397 33.4632C17.9231 33.7661 17.7466 34.0425 17.5209 34.2757C17.2952 34.509 17.0249 34.6945 16.726 34.8211C16.4271 34.9477 16.1058 35.0128 15.7812 35.0127C15.3689 35.0121 14.9635 34.9062 14.6036 34.7049C14.2437 34.5037 13.9413 34.2137 13.725 33.8627L10.3312 28.3502C9.68053 27.3648 8.97961 26.4136 8.23124 25.5002C7.57322 24.6737 7.09721 23.7175 6.83441 22.6943C6.5716 21.6711 6.52793 20.6039 6.70624 19.5627Z" fill="#BCBCFF"/>
<path d="M25.275 17.1314L24.4125 17.5127C24.0594 17.6783 23.6687 17.7476 23.2802 17.7136C22.8916 17.6795 22.519 17.5434 22.2 17.319L19.3125 15.2877C19.5714 15.41 19.86 15.455 20.1438 15.4173C20.4276 15.3796 20.6945 15.2608 20.9125 15.0752C21.4343 14.6423 22.0099 14.2789 22.625 13.994C23.0957 13.7862 23.6123 13.7046 24.1241 13.7572C24.6359 13.8098 25.1252 13.9948 25.5438 14.294C25.778 14.4621 25.964 14.6887 26.0834 14.9512C26.2028 15.2136 26.2513 15.5028 26.2241 15.7899C26.1969 16.0769 26.095 16.3518 25.9285 16.5872C25.7619 16.8226 25.5366 17.0103 25.275 17.1314Z" fill="#DCDFE2"/>
<path d="M11.1126 18.5564C10.9292 18.5502 10.7516 18.4904 10.6019 18.3843C10.4522 18.2781 10.3369 18.1304 10.2704 17.9594C10.2038 17.7884 10.1889 17.6016 10.2275 17.4222C10.2661 17.2428 10.3566 17.0787 10.4876 16.9502C11.4553 15.9968 12.7604 15.4644 14.1188 15.4689C14.3674 15.4689 14.6059 15.5677 14.7817 15.7435C14.9575 15.9193 15.0563 16.1578 15.0563 16.4064C15.0563 16.655 14.9575 16.8935 14.7817 17.0693C14.6059 17.2451 14.3674 17.3439 14.1188 17.3439C13.2503 17.3428 12.4158 17.6815 11.7938 18.2877C11.7045 18.3765 11.5981 18.4461 11.4809 18.4923C11.3638 18.5385 11.2384 18.5603 11.1126 18.5564Z" fill="white"/>
<path d="M9.82498 21.6064C9.57634 21.6064 9.33788 21.5076 9.16206 21.3318C8.98625 21.156 8.88748 20.9176 8.88748 20.6689C8.88126 20.6212 8.88126 20.5729 8.88748 20.5252C8.90157 20.2765 9.01385 20.0437 9.19963 19.8778C9.38541 19.712 9.62946 19.6267 9.8781 19.6408C10.1267 19.6549 10.3596 19.7672 10.5255 19.9529C10.6913 20.1387 10.7766 20.3828 10.7625 20.6314V20.6752C10.7608 20.9227 10.6613 21.1596 10.4857 21.334C10.3101 21.5085 10.0725 21.6064 9.82498 21.6064Z" fill="white"/>
<path d="M21.8438 9.17524L23.25 8.76274C23.3045 8.74552 23.3521 8.7114 23.3858 8.66532C23.4196 8.61925 23.4378 8.56361 23.4378 8.50649C23.4378 8.44937 23.4196 8.39374 23.3858 8.34766C23.3521 8.30158 23.3045 8.26746 23.25 8.25024L21.8438 7.84399C21.5469 7.75806 21.2765 7.59838 21.058 7.37981C20.8394 7.16124 20.6797 6.89091 20.5938 6.59399L20.1875 5.18774C20.1703 5.13328 20.1362 5.08572 20.0901 5.05196C20.0441 5.0182 19.9884 5 19.9313 5C19.8742 5 19.8185 5.0182 19.7725 5.05196C19.7264 5.08572 19.6923 5.13328 19.675 5.18774L19.2688 6.59399C19.1829 6.89091 19.0232 7.16124 18.8046 7.37981C18.586 7.59838 18.3157 7.75806 18.0188 7.84399L16.6125 8.25024C16.5581 8.26746 16.5105 8.30158 16.4768 8.34766C16.443 8.39374 16.4248 8.44937 16.4248 8.50649C16.4248 8.56361 16.443 8.61925 16.4768 8.66532C16.5105 8.7114 16.5581 8.74552 16.6125 8.76274L18.0188 9.16274C18.3154 9.24919 18.5855 9.40906 18.804 9.62755C19.0225 9.84603 19.1823 10.1161 19.2688 10.4127L19.675 11.819C19.6923 11.8735 19.7264 11.921 19.7725 11.9548C19.8185 11.9885 19.8742 12.0067 19.9313 12.0067C19.9884 12.0067 20.0441 11.9885 20.0901 11.9548C20.1362 11.921 20.1703 11.8735 20.1875 11.819L20.5938 10.4127C20.6821 10.1184 20.8427 9.8509 21.0611 9.63471C21.2795 9.41851 21.5486 9.26054 21.8438 9.17524Z" fill="#4041D1"/>
<path d="M13.5 11.2064L14.0437 11.5064C14.064 11.5244 14.0903 11.534 14.1174 11.5332C14.1445 11.5324 14.1702 11.5213 14.1894 11.5022C14.2086 11.483 14.2197 11.4572 14.2205 11.4302C14.2213 11.4031 14.2117 11.3767 14.1937 11.3564L13.8937 10.8127C13.8324 10.6983 13.8004 10.5706 13.8004 10.4408C13.8004 10.3111 13.8324 10.1833 13.8937 10.0689L14.1937 9.53144C14.2117 9.51119 14.2213 9.48482 14.2205 9.45774C14.2197 9.43065 14.2086 9.4049 14.1894 9.38573C14.1702 9.36657 14.1445 9.35546 14.1174 9.35466C14.0903 9.35386 14.064 9.36344 14.0437 9.38144L13.5 9.6752C13.3867 9.73987 13.2585 9.77388 13.1281 9.77388C12.9976 9.77388 12.8695 9.73987 12.7562 9.6752L12.2187 9.38769C12.1984 9.36969 12.1721 9.36011 12.145 9.36091C12.1179 9.36171 12.0921 9.37282 12.073 9.39198C12.0538 9.41114 12.0427 9.4369 12.0419 9.46399C12.0411 9.49107 12.0507 9.51744 12.0687 9.53769L12.3624 10.0752C12.4271 10.1885 12.4611 10.3166 12.4611 10.4471C12.4611 10.5775 12.4271 10.7057 12.3624 10.8189L12.0687 11.3627C12.0507 11.3829 12.0411 11.4093 12.0419 11.4364C12.0427 11.4635 12.0538 11.4892 12.073 11.5084C12.0921 11.5276 12.1179 11.5387 12.145 11.5395C12.1721 11.5403 12.1984 11.5307 12.2187 11.5127L12.7562 11.2127C12.8701 11.1505 12.9975 11.1173 13.1273 11.1162C13.257 11.1151 13.3851 11.1461 13.5 11.2064Z" fill="#4041D1"/>
<path d="M6.3 14.3877L6.4875 15.0127C6.4875 15.0425 6.49935 15.0711 6.52045 15.0922C6.54155 15.1133 6.57016 15.1252 6.6 15.1252C6.62984 15.1252 6.65845 15.1133 6.67955 15.0922C6.70065 15.0711 6.7125 15.0425 6.7125 15.0127L6.9 14.3877C6.93656 14.253 7.0077 14.1302 7.10638 14.0316C7.20505 13.9329 7.32782 13.8617 7.4625 13.8252L8.0875 13.6377C8.11734 13.6377 8.14595 13.6258 8.16705 13.6047C8.18815 13.5836 8.2 13.555 8.2 13.5252C8.2 13.4953 8.18815 13.4667 8.16705 13.4456C8.14595 13.4245 8.11734 13.4127 8.0875 13.4127L7.4625 13.2252C7.32782 13.1886 7.20505 13.1175 7.10638 13.0188C7.0077 12.9201 6.93656 12.7973 6.9 12.6627L6.7125 12.0377C6.7125 12.0078 6.70065 11.9792 6.67955 11.9581C6.65845 11.937 6.62984 11.9252 6.6 11.9252C6.57016 11.9252 6.54155 11.937 6.52045 11.9581C6.49935 11.9792 6.4875 12.0078 6.4875 12.0377L6.3 12.6627C6.26344 12.7973 6.1923 12.9201 6.09362 13.0188C5.99495 13.1175 5.87217 13.1886 5.7375 13.2252L5.1125 13.4127C5.08266 13.4127 5.05405 13.4245 5.03295 13.4456C5.01185 13.4667 5 13.4953 5 13.5252C5 13.555 5.01185 13.5836 5.03295 13.6047C5.05405 13.6258 5.08266 13.6377 5.1125 13.6377L5.7375 13.8252C5.87217 13.8617 5.99495 13.9329 6.09362 14.0316C6.1923 14.1302 6.26344 14.253 6.3 14.3877Z" fill="#4041D1"/>
<path d="M26.4563 11.2064L25.9125 11.5064C25.8923 11.5244 25.8659 11.534 25.8388 11.5332C25.8118 11.5324 25.786 11.5213 25.7668 11.5022C25.7477 11.483 25.7366 11.4572 25.7358 11.4302C25.735 11.4031 25.7445 11.3767 25.7625 11.3564L26.0625 10.8127C26.1238 10.6983 26.1559 10.5706 26.1559 10.4408C26.1559 10.3111 26.1238 10.1833 26.0625 10.0689L25.7625 9.53144C25.7445 9.51119 25.735 9.48482 25.7358 9.45774C25.7366 9.43065 25.7477 9.4049 25.7668 9.38573C25.786 9.36657 25.8118 9.35546 25.8388 9.35466C25.8659 9.35386 25.8923 9.36344 25.9125 9.38144L26.4563 9.6752C26.5696 9.73987 26.6977 9.77388 26.8282 9.77388C26.9586 9.77388 27.0868 9.73987 27.2 9.6752L27.7375 9.38144C27.7578 9.36344 27.7842 9.35386 27.8113 9.35466C27.8383 9.35546 27.8641 9.36657 27.8833 9.38573C27.9024 9.4049 27.9135 9.43065 27.9143 9.45774C27.9151 9.48482 27.9055 9.51119 27.8875 9.53144L27.5938 10.0689C27.5291 10.1822 27.4951 10.3104 27.4951 10.4408C27.4951 10.5713 27.5291 10.6994 27.5938 10.8127L27.8875 11.3564C27.9055 11.3767 27.9151 11.4031 27.9143 11.4302C27.9135 11.4572 27.9024 11.483 27.8833 11.5022C27.8641 11.5213 27.8383 11.5324 27.8113 11.5332C27.7842 11.534 27.7578 11.5244 27.7375 11.5064L27.2 11.2064C27.0857 11.1452 26.9579 11.1131 26.8282 11.1131C26.6984 11.1131 26.5707 11.1452 26.4563 11.2064Z" fill="#4041D1"/>
<path d="M33.6875 14.3877L33.5 15.0127C33.5 15.0425 33.4881 15.0711 33.467 15.0922C33.4459 15.1133 33.4173 15.1252 33.3875 15.1252C33.3576 15.1252 33.329 15.1133 33.3079 15.0922C33.2868 15.0711 33.275 15.0425 33.275 15.0127L33.0625 14.3877C33.0259 14.253 32.9548 14.1302 32.8561 14.0316C32.7574 13.9329 32.6346 13.8617 32.5 13.8252L31.875 13.6377C31.8451 13.6377 31.8165 13.6258 31.7954 13.6047C31.7743 13.5836 31.7625 13.555 31.7625 13.5252C31.7625 13.4953 31.7743 13.4667 31.7954 13.4456C31.8165 13.4245 31.8451 13.4127 31.875 13.4127L32.5 13.2252C32.6346 13.1886 32.7574 13.1175 32.8561 13.0188C32.9548 12.9201 33.0259 12.7973 33.0625 12.6627L33.25 12.0377C33.25 12.0078 33.2618 11.9792 33.2829 11.9581C33.304 11.937 33.3326 11.9252 33.3625 11.9252C33.3923 11.9252 33.4209 11.937 33.442 11.9581C33.4631 11.9792 33.475 12.0078 33.475 12.0377L33.6625 12.6627C33.699 12.7973 33.7702 12.9201 33.8688 13.0188C33.9675 13.1175 34.0903 13.1886 34.225 13.2252L34.85 13.4127C34.8798 13.4127 34.9084 13.4245 34.9295 13.4456C34.9506 13.4667 34.9625 13.4953 34.9625 13.5252C34.9625 13.555 34.9506 13.5836 34.9295 13.6047C34.9084 13.6258 34.8798 13.6377 34.85 13.6377L34.225 13.8252C34.0949 13.8654 33.9773 13.9382 33.8832 14.0367C33.7892 14.1351 33.7218 14.2559 33.6875 14.3877Z" fill="#4041D1"/>
</svg>
