<svg width="64" height="64" viewBox="0 0 64 64" fill="none" xmlns="http://www.w3.org/2000/svg">
<path d="M48.91 14.06C42.38 13.35 36.81 11.3 33.34 8.47C32.96 8.16486 32.4873 7.99854 32 7.99854C31.5126 7.99854 31.0399 8.16486 30.66 8.47C27.19 11.3 21.66 13.35 15.09 14.06C14.5444 14.1075 14.0364 14.3577 13.6662 14.7612C13.296 15.1648 13.0904 15.6924 13.09 16.24V37.62C13.0937 39.7722 13.6805 41.8831 14.7881 43.7284C15.8956 45.5737 17.4825 47.0845 19.38 48.1C21.6515 49.3333 23.8426 50.7094 25.94 52.22L30.49 55.51C30.9276 55.8227 31.4521 55.9909 31.99 55.9909C32.5279 55.9909 33.0523 55.8227 33.49 55.51L38.04 52.22C40.1373 50.7094 42.3284 49.3333 44.6 48.1C46.49 47.0792 48.0688 45.5661 49.169 43.7212C50.2693 41.8763 50.8501 39.7681 50.85 37.62V16.24C50.851 15.7017 50.6538 15.1819 50.296 14.7798C49.9381 14.3777 49.4447 14.1214 48.91 14.06Z" fill="#BCBCFF"/>
<path d="M37.26 22.9299L25.26 37.5799L29.94 45.1099C31.2877 47.2842 32.0012 49.7918 32 52.3499V55.9999C32.5428 56.0021 33.072 55.8304 33.51 55.5099L39.6 51.1099C41.0839 50.0379 42.6524 49.0881 44.29 48.2699C46.2665 47.2795 47.9286 45.759 49.0906 43.8783C50.2526 41.9975 50.8687 39.8307 50.87 37.6199V36.5399C50.87 32.9303 49.4361 29.4686 46.8837 26.9162C44.3314 24.3638 40.8696 22.9299 37.26 22.9299Z" fill="#4041D1"/>
<path d="M21 28.16C21.1852 27.0685 21.6557 26.0454 22.3638 25.1943C23.0718 24.3432 23.9923 23.6945 25.0319 23.3138C26.0714 22.9331 27.1932 22.8339 28.2834 23.0265C29.3737 23.219 30.3936 23.6963 31.24 24.41C31.4651 24.6042 31.7526 24.7111 32.05 24.7111C32.3473 24.7111 32.6348 24.6042 32.86 24.41C34.0433 23.4037 35.558 22.8725 37.1107 22.9194C38.6633 22.9662 40.1433 23.5877 41.2639 24.6634C42.3844 25.7391 43.0658 27.1925 43.1759 28.742C43.286 30.2914 42.8171 31.8266 41.86 33.05C41.2357 33.8228 40.6516 34.6272 40.11 35.46L37.26 40.11C37.0846 40.4137 36.8324 40.666 36.5288 40.8415C36.2251 41.017 35.8807 41.1096 35.53 41.11C35.2596 41.1103 34.9919 41.0557 34.7432 40.9496C34.4945 40.8435 34.2699 40.6881 34.0829 40.4927C33.896 40.2974 33.7506 40.0661 33.6556 39.813C33.5605 39.5599 33.5178 39.2901 33.53 39.02L33.58 37.24C33.5928 37.0282 33.561 36.8161 33.4864 36.6175C33.4118 36.4189 33.2962 36.2382 33.1472 36.0872C32.9981 35.9363 32.8189 35.8184 32.6212 35.7414C32.4236 35.6643 32.2119 35.6297 32 35.64C31.7982 35.6412 31.5988 35.6828 31.4134 35.7624C31.228 35.842 31.0605 35.9579 30.9207 36.1034C30.7808 36.2488 30.6716 36.4207 30.5993 36.6091C30.5271 36.7974 30.4933 36.9984 30.5 37.2L30.55 39C30.5621 39.2701 30.5194 39.5399 30.4243 39.793C30.3293 40.0461 30.1839 40.2774 29.997 40.4727C29.81 40.6681 29.5854 40.8235 29.3367 40.9296C29.088 41.0357 28.8203 41.0903 28.55 41.09C28.1992 41.0896 27.8548 40.997 27.5511 40.8215C27.2475 40.646 26.9953 40.3937 26.82 40.09C26.1 38.9 24.82 36.88 23.99 35.48C23.4439 34.6574 22.8564 33.8631 22.23 33.1C21.6914 32.408 21.3038 31.611 21.0919 30.7602C20.8801 29.9094 20.8488 29.0236 21 28.16Z" fill="#EBEEF2"/>
<path d="M36.47 26.1201L35.75 26.4601C35.4554 26.6009 35.1285 26.6603 34.8032 26.6322C34.4779 26.604 34.166 26.4894 33.9 26.3001L31.48 24.5901C31.6958 24.6896 31.9356 24.7256 32.1712 24.6937C32.4068 24.6618 32.6284 24.5634 32.81 24.4101C33.2419 24.0416 33.7232 23.7353 34.24 23.5001C34.6339 23.3261 35.0665 23.2585 35.4947 23.3041C35.9229 23.3498 36.3316 23.507 36.68 23.7601C36.8759 23.8985 37.0321 24.0859 37.1328 24.3036C37.2336 24.5213 37.2755 24.7616 37.2542 25.0005C37.2329 25.2395 37.1493 25.4686 37.0117 25.6651C36.8741 25.8616 36.6873 26.0185 36.47 26.1201Z" fill="#DCDFE2"/>
<path d="M25.07 27.45C24.9377 27.4494 24.8068 27.4226 24.6849 27.3711C24.5631 27.3196 24.4526 27.2444 24.36 27.15C24.2663 27.057 24.1919 26.9464 24.1411 26.8245C24.0903 26.7027 24.0642 26.572 24.0642 26.44C24.0642 26.3079 24.0903 26.1772 24.1411 26.0554C24.1919 25.9335 24.2663 25.8229 24.36 25.73C25.2104 24.9005 26.3521 24.4373 27.54 24.44C27.8052 24.44 28.0596 24.5453 28.2471 24.7328C28.4347 24.9204 28.54 25.1747 28.54 25.44C28.54 25.7052 28.4347 25.9595 28.2471 26.1471C28.0596 26.3346 27.8052 26.44 27.54 26.44C26.8707 26.4389 26.2277 26.7011 25.75 27.17C25.5671 27.3463 25.324 27.4464 25.07 27.45Z" fill="white"/>
<path d="M24 29.9999C23.7348 29.9999 23.4804 29.8946 23.2929 29.707C23.1054 29.5195 23 29.2652 23 28.9999V28.8599C23.0133 28.5947 23.1313 28.3456 23.3282 28.1675C23.5252 27.9893 23.7848 27.8967 24.05 27.9099C24.3152 27.9232 24.5643 28.0413 24.7425 28.2382C24.9206 28.4351 25.0133 28.6947 25 28.9599C25.0054 29.0946 24.9835 29.2289 24.9357 29.3549C24.8878 29.4809 24.815 29.5959 24.7216 29.6931C24.6282 29.7902 24.5162 29.8674 24.3922 29.9202C24.2681 29.9729 24.1348 30 24 29.9999Z" fill="white"/>
</svg>
