<svg width="64" height="64" viewBox="0 0 64 64" fill="none" xmlns="http://www.w3.org/2000/svg">
<path d="M10.1101 28.3801L14.7901 33.0601C14.8703 33.1383 14.978 33.182 15.0901 33.182C15.2021 33.182 15.3098 33.1383 15.3901 33.0601L20.0701 28.3801C20.1286 28.32 20.1683 28.2441 20.1842 28.1617C20.2002 28.0794 20.1917 27.9941 20.1598 27.9166C20.1279 27.839 20.074 27.7724 20.0048 27.725C19.9355 27.6777 19.8539 27.6516 19.7701 27.6501H18.5001C18.386 27.6501 18.2766 27.6048 18.196 27.5241C18.1154 27.4435 18.0701 27.3341 18.0701 27.2201V23.3001C18.0701 23.1091 17.9942 22.926 17.8592 22.791C17.7241 22.6559 17.541 22.5801 17.3501 22.5801H12.8301C12.6391 22.5801 12.456 22.6559 12.3209 22.791C12.1859 22.926 12.1101 23.1091 12.1101 23.3001V27.2201C12.1101 27.3341 12.0647 27.4435 11.9841 27.5241C11.9035 27.6048 11.7941 27.6501 11.6801 27.6501H10.4101C10.3262 27.6516 10.2446 27.6777 10.1753 27.725C10.1061 27.7724 10.0522 27.839 10.0203 27.9166C9.98843 27.9941 9.97993 28.0794 9.99588 28.1617C10.0118 28.2441 10.0515 28.32 10.1101 28.3801Z" fill="#4041D1"/>
<path d="M43.9301 28.3801L48.6101 33.0601C48.6904 33.1383 48.798 33.182 48.9101 33.182C49.0222 33.182 49.1298 33.1383 49.2101 33.0601L53.8901 28.3801C53.9487 28.32 53.9883 28.2441 54.0043 28.1617C54.0202 28.0794 54.0117 27.9941 53.9799 27.9166C53.948 27.839 53.8941 27.7724 53.8248 27.725C53.7556 27.6777 53.674 27.6516 53.5901 27.6501H52.3201C52.2061 27.6501 52.0967 27.6048 52.0161 27.5241C51.9354 27.4435 51.8901 27.3341 51.8901 27.2201V23.3001C51.8901 23.1091 51.8143 22.926 51.6792 22.791C51.5442 22.6559 51.3611 22.5801 51.1701 22.5801H46.6501C46.4592 22.5801 46.276 22.6559 46.141 22.791C46.006 22.926 45.9301 23.1091 45.9301 23.3001V27.2201C45.9301 27.3341 45.8848 27.4435 45.8042 27.5241C45.7235 27.6048 45.6142 27.6501 45.5001 27.6501H44.2301C44.1462 27.6516 44.0647 27.6777 43.9954 27.725C43.9262 27.7724 43.8723 27.839 43.8404 27.9166C43.8085 27.9941 43.8 28.0794 43.8159 28.1617C43.8319 28.2441 43.8716 28.32 43.9301 28.3801Z" fill="#4041D1"/>
<path d="M43.51 13.4101C43.3116 12.2771 42.8179 11.2165 42.0787 10.3352C41.3395 9.45392 40.381 8.78319 39.2998 8.39067C38.2186 7.99815 37.053 7.89773 35.9206 8.09954C34.7882 8.30135 33.729 8.79825 32.85 9.5401C32.6138 9.74418 32.3121 9.85648 32 9.85648C31.6879 9.85648 31.3862 9.74418 31.15 9.5401C29.9106 8.48841 28.3239 7.93598 26.6993 7.9905C25.0747 8.04502 23.5286 8.7026 22.3625 9.83502C21.1964 10.9675 20.4937 12.4936 20.3916 14.1159C20.2895 15.7382 20.7951 17.3404 21.81 18.6101C22.4639 19.4035 23.0748 20.2313 23.64 21.0901L26.64 25.8901C26.8822 26.2859 27.2487 26.5904 27.6822 26.7559C28.1157 26.9215 28.5918 26.9388 29.0362 26.8051C29.4805 26.6714 29.8681 26.3944 30.1384 26.0172C30.4086 25.64 30.5464 25.1838 30.53 24.7201V22.8701H33.6L33.54 24.7201C33.5237 25.1838 33.6614 25.64 33.9316 26.0172C34.2019 26.3944 34.5895 26.6714 35.0339 26.8051C35.4782 26.9388 35.9543 26.9215 36.3879 26.7559C36.8214 26.5904 37.1878 26.2859 37.43 25.8901L40.43 21.0601C40.9877 20.1865 41.5989 19.3483 42.26 18.5501C42.8154 17.8279 43.2135 16.9976 43.4288 16.1123C43.6441 15.2271 43.6717 14.3067 43.51 13.4101Z" fill="#EBEEF2"/>
<path d="M36.66 11.33L35.9 11.68C35.5959 11.8197 35.2606 11.8775 34.9273 11.8477C34.5941 11.8179 34.2744 11.7015 34 11.51L31.45 9.72003C31.6767 9.82443 31.9282 9.86291 32.1758 9.83108C32.4234 9.79925 32.657 9.69839 32.8499 9.54003C33.2982 9.15579 33.8001 8.83911 34.34 8.60003C34.7488 8.4163 35.1989 8.34359 35.6448 8.38923C36.0908 8.43488 36.5168 8.59727 36.88 8.86003C37.0834 9.00597 37.2452 9.20243 37.3496 9.43001C37.4539 9.6576 37.4971 9.90845 37.4749 10.1578C37.4526 10.4072 37.3658 10.6465 37.2229 10.852C37.08 11.0576 36.886 11.2223 36.66 11.33Z" fill="#DCDFE2"/>
<path d="M24.32 12.5699C24.1013 12.5662 23.8928 12.4764 23.74 12.3199C23.6641 12.2446 23.6039 12.155 23.5628 12.0563C23.5217 11.9576 23.5005 11.8518 23.5005 11.7449C23.5005 11.638 23.5217 11.5321 23.5628 11.4334C23.6039 11.3348 23.6641 11.2452 23.74 11.1699C24.5867 10.341 25.7251 9.87776 26.91 9.87989C27.1106 9.90214 27.2959 9.99759 27.4305 10.148C27.5651 10.2983 27.6396 10.4931 27.6396 10.6949C27.6396 10.8967 27.5651 11.0914 27.4305 11.2418C27.2959 11.3922 27.1106 11.4876 26.91 11.5099C26.1628 11.5163 25.4466 11.8099 24.91 12.3299C24.8341 12.4092 24.7423 12.4715 24.6406 12.5129C24.5389 12.5542 24.4297 12.5736 24.32 12.5699Z" fill="white"/>
<path d="M23.2001 15.2201C22.9853 15.2201 22.7792 15.1347 22.6273 14.9828C22.4754 14.8309 22.3901 14.6249 22.3901 14.4101V14.2901C22.3854 14.1759 22.4047 14.062 22.4467 13.9556C22.4887 13.8493 22.5524 13.753 22.6338 13.6727C22.7152 13.5925 22.8125 13.5302 22.9194 13.4898C23.0263 13.4493 23.1405 13.4317 23.2546 13.438C23.3687 13.4443 23.4803 13.4744 23.5821 13.5264C23.6839 13.5783 23.7737 13.651 23.8458 13.7397C23.9179 13.8284 23.9706 13.9312 24.0006 14.0414C24.0306 14.1517 24.0373 14.2671 24.0201 14.3801C24.0228 14.4894 24.0035 14.5982 23.9635 14.7C23.9235 14.8018 23.8635 14.8946 23.7871 14.9729C23.7107 15.0511 23.6194 15.1133 23.5186 15.1558C23.4178 15.1982 23.3095 15.2201 23.2001 15.2201Z" fill="white"/>
<path d="M24.2699 22.3501H39.7299C39.8864 22.3501 40.0365 22.4123 40.1471 22.5229C40.2578 22.6335 40.3199 22.7836 40.3199 22.9401V24.6201C40.3199 25.071 40.1408 25.5034 39.822 25.8222C39.5032 26.141 39.0708 26.3201 38.6199 26.3201H25.3799C24.9291 26.3201 24.4967 26.141 24.1779 25.8222C23.859 25.5034 23.6799 25.071 23.6799 24.6201V22.9301C23.6826 22.7754 23.7459 22.6278 23.8562 22.5194C23.9666 22.4109 24.1152 22.3501 24.2699 22.3501Z" fill="#4041D1"/>
<path d="M25.6599 26.3101V37.3101C25.6607 37.7792 25.8478 38.2288 26.1799 38.5601L30.9999 43.4301C31.1265 43.5589 31.2775 43.6612 31.444 43.731C31.6105 43.8008 31.7893 43.8368 31.9699 43.8368C32.1505 43.8368 32.3293 43.8008 32.4958 43.731C32.6624 43.6612 32.8133 43.5589 32.9399 43.4301L37.7899 38.5701C38.122 38.2388 38.3091 37.7892 38.3099 37.3201V26.3201L25.6599 26.3101Z" fill="#4041D1"/>
<path d="M25.6599 30.6001L38.3399 26.4001V26.3101H33.7999L25.6599 29.0001V30.6001Z" fill="#BCBCFF"/>
<path d="M25.6599 34.4399L38.3399 30.2499V28.6499L25.6599 32.8399V34.4399Z" fill="#BCBCFF"/>
<path d="M38.3399 32.49L25.6599 36.69V37.32C25.6613 37.6307 25.7477 37.935 25.9099 38.2L38.3399 34.09V32.49Z" fill="#BCBCFF"/>
<path d="M27.52 39.9101L28.72 41.1101L38.21 38.0001C38.2933 37.7899 38.3374 37.5662 38.34 37.3401V36.3401L27.52 39.9101Z" fill="#BCBCFF"/>
<path d="M30.4099 42.8L31.0299 43.43C31.1776 43.5776 31.3572 43.6894 31.5547 43.757C31.7523 43.8246 31.9627 43.8462 32.1699 43.82L32.6699 43.65C32.78 43.5915 32.8811 43.5174 32.9699 43.43L35.1699 41.23L30.4099 42.8Z" fill="#BCBCFF"/>
<path d="M56 42.6901C55.9994 42.0061 55.8553 41.3299 55.577 40.7051C55.2988 40.0803 54.8926 39.5208 54.3846 39.0628C53.8766 38.6047 53.2782 38.2584 52.628 38.046C51.9779 37.8337 51.2904 37.7601 50.61 37.8301C47.55 38.1501 44.23 38.4001 40.73 38.5501C40.0836 38.581 39.4741 38.8604 39.0288 39.33C38.5834 39.7995 38.3367 40.4229 38.34 41.0701C38.3663 42.6523 37.8153 44.1899 36.7902 45.3955C35.765 46.601 34.3359 47.3918 32.77 47.6201C31.8796 47.7274 30.9766 47.6449 30.1204 47.3781C29.2642 47.1112 28.4742 46.666 27.8025 46.0717C27.1308 45.4775 26.5926 44.7477 26.2233 43.9304C25.854 43.1131 25.662 42.2269 25.66 41.3301C25.6608 40.6121 25.3847 39.9215 24.8893 39.4018C24.3939 38.8822 23.7172 38.5735 23 38.5401C19.6 38.3801 16.37 38.1401 13.39 37.8301C12.7096 37.7601 12.0221 37.8337 11.372 38.046C10.7218 38.2584 10.1234 38.6047 9.61541 39.0628C9.10744 39.5208 8.70121 40.0803 8.42295 40.7051C8.1447 41.3299 8.00061 42.0061 8 42.6901V42.7401C8 50.0001 18.75 55.9301 32 55.9301C45.25 55.9301 56 50.0001 56 42.7401V42.6901Z" fill="#BCBCFF"/>
<path d="M27 23.0801L31.68 27.7601C31.7603 27.8383 31.8679 27.882 31.98 27.882C32.092 27.882 32.1997 27.8383 32.28 27.7601L37 23.0801C37.0585 23.02 37.0982 22.9441 37.1141 22.8618C37.1301 22.7794 37.1216 22.6942 37.0897 22.6166C37.0578 22.539 37.0039 22.4724 36.9347 22.4251C36.8654 22.3777 36.7838 22.3517 36.7 22.3501H35.41C35.295 22.3475 35.1856 22.3 35.1053 22.2177C35.0249 22.1355 34.9799 22.0251 34.98 21.9101V18.0001C34.9774 17.8099 34.9007 17.6283 34.7662 17.4938C34.6318 17.3594 34.4501 17.2827 34.26 17.2801H29.74C29.6441 17.2788 29.5489 17.2964 29.4598 17.3318C29.3708 17.3673 29.2895 17.42 29.2208 17.4868C29.1521 17.5537 29.0972 17.6334 29.0593 17.7215C29.0214 17.8096 29.0013 17.9042 29 18.0001V21.9201C29 22.0351 28.955 22.1455 28.8746 22.2277C28.7943 22.31 28.6849 22.3575 28.57 22.3601H27.32C27.2364 22.3596 27.1544 22.3835 27.0842 22.4289C27.014 22.4742 26.9585 22.5391 26.9245 22.6155C26.8906 22.6919 26.8796 22.7765 26.893 22.859C26.9064 22.9415 26.9436 23.0184 27 23.0801Z" fill="white"/>
</svg>
