<svg width="64" height="64" viewBox="0 0 64 64" fill="none" xmlns="http://www.w3.org/2000/svg">
<path d="M32.0001 16.39C35.6101 16.39 38.6501 13.63 39.5501 9.87C39.7401 9.11 39.2001 8.37 38.5501 8.52C36.6289 8.98268 34.8739 9.96926 33.4801 11.37C33.293 11.5698 33.0669 11.7291 32.8157 11.838C32.5646 11.9469 32.2938 12.0031 32.0201 12.0031C31.7463 12.0031 31.4755 11.9469 31.2244 11.838C30.9732 11.7291 30.7471 11.5698 30.5601 11.37C29.1663 9.96926 27.4112 8.98268 25.4901 8.52C24.8201 8.37 24.2801 9.11 24.4901 9.87C25.3501 13.63 28.3901 16.39 32.0001 16.39Z" fill="#DCDFE2"/>
<path d="M51.86 32.7299C51.4509 30.4209 50.3342 28.2962 48.6644 26.6497C46.9947 25.0033 44.8545 23.9165 42.54 23.5399C41.6339 23.3977 40.714 23.3641 39.8 23.4399C39.5636 25.342 38.6403 27.0922 37.2039 28.3612C35.7674 29.6302 33.9167 30.3306 32 30.3306C30.0833 30.3306 28.2326 29.6302 26.7961 28.3612C25.3596 27.0922 24.4364 25.342 24.2 23.4399C23.2893 23.364 22.3727 23.3976 21.47 23.5399C19.5267 23.8569 17.7002 24.6769 16.1722 25.9186C14.6441 27.1603 13.4677 28.7804 12.7598 30.6177C12.052 32.455 11.8374 34.4456 12.1375 36.3916C12.4375 38.3376 13.2416 40.1711 14.47 41.7099C15.38 42.8599 16.85 44.7099 17.62 45.9899L22.72 54.2699C23.1386 54.95 23.7699 55.4731 24.516 55.7581C25.262 56.0431 26.0813 56.0741 26.8468 55.8463C27.6122 55.6184 28.2812 55.1445 28.75 54.498C29.2189 53.8514 29.4614 53.0683 29.44 52.2699L29.34 49.0699C29.3175 48.6982 29.3712 48.3258 29.498 47.9756C29.6247 47.6254 29.8218 47.3048 30.077 47.0337C30.3323 46.7625 30.6403 46.5464 30.9822 46.3987C31.3241 46.2509 31.6926 46.1748 32.065 46.1748C32.4374 46.1748 32.8059 46.2509 33.1478 46.3987C33.4896 46.5464 33.7977 46.7625 34.0529 47.0337C34.3082 47.3048 34.5052 47.6254 34.632 47.9756C34.7587 48.3258 34.8125 48.6982 34.79 49.0699L34.69 52.2699C34.678 52.7513 34.7617 53.2302 34.9362 53.679C35.1106 54.1278 35.3723 54.5375 35.7062 54.8844C36.0401 55.2313 36.4396 55.5086 36.8813 55.7C37.3231 55.8915 37.7985 55.9934 38.28 55.9999C38.9016 56.0011 39.5131 55.8426 40.0559 55.5397C40.5987 55.2368 41.0546 54.7996 41.38 54.2699L46.51 45.9199C47.4841 44.4228 48.5355 42.9775 49.66 41.5899C50.6266 40.3494 51.3219 38.9198 51.7009 37.3935C52.0799 35.8673 52.1341 34.2784 51.86 32.7299Z" fill="#EBEEF2"/>
<path d="M32 30.3299C33.9251 30.361 35.7924 29.6716 37.2355 28.3969C38.6786 27.1222 39.5932 25.3542 39.7999 23.4399C37.4662 23.6278 35.2495 24.5403 33.4599 26.0499C33.0537 26.3991 32.5357 26.5911 32 26.5911C31.4642 26.5911 30.9462 26.3991 30.54 26.0499C28.7504 24.5403 26.5337 23.6278 24.2 23.4399C24.4067 25.3542 25.3213 27.1222 26.7644 28.3969C28.2075 29.6716 30.0748 30.361 32 30.3299Z" fill="#BCBCFF"/>
<path d="M33.46 26.0501C33.0537 26.3993 32.5357 26.5913 32 26.5913C31.4643 26.5913 30.9463 26.3993 30.54 26.0501C29.0288 24.7771 27.2067 23.9282 25.26 23.5901C26.38 26.8101 29 29.0801 32 29.0801C35 29.0801 37.62 26.8101 38.74 23.5901C36.7933 23.9282 34.9712 24.7771 33.46 26.0501Z" fill="#4041D1"/>
<path d="M32 14.8899C33.6915 14.9086 35.3431 14.3761 36.7052 13.373C38.0673 12.37 39.0659 10.9508 39.55 9.32992C39.5941 9.1842 39.6005 9.02966 39.5687 8.88077C39.5368 8.73189 39.4677 8.59352 39.3678 8.47863C39.2678 8.36373 39.1404 8.27606 38.9974 8.22382C38.8544 8.17158 38.7005 8.15648 38.55 8.17993C36.6802 8.54355 34.9347 9.38015 33.48 10.6099C33.0711 10.9534 32.5541 11.1417 32.02 11.1417C31.4859 11.1417 30.969 10.9534 30.56 10.6099C29.1053 9.38015 27.3598 8.54355 25.49 8.17993C25.3396 8.15648 25.1856 8.17158 25.0426 8.22382C24.8996 8.27606 24.7722 8.36373 24.6723 8.47863C24.5724 8.59352 24.5032 8.73189 24.4714 8.88077C24.4395 9.02966 24.4459 9.1842 24.49 9.32992C24.9723 10.9441 25.9648 12.3585 27.3188 13.361C28.6728 14.3634 30.3153 14.8999 32 14.8899Z" fill="#EBEEF2"/>
<path d="M28.53 21.4101L31.79 24.6601C31.8171 24.6885 31.8497 24.7112 31.8858 24.7267C31.9219 24.7421 31.9607 24.7501 32 24.7501C32.0393 24.7501 32.0781 24.7421 32.1142 24.7267C32.1503 24.7112 32.1829 24.6885 32.21 24.6601L35.47 21.4101C35.5111 21.3682 35.539 21.3151 35.5502 21.2575C35.5615 21.1998 35.5555 21.1402 35.5332 21.0859C35.5108 21.0316 35.473 20.985 35.4245 20.952C35.3759 20.919 35.3187 20.9009 35.26 20.9001H34.38C34.2978 20.9001 34.2189 20.8674 34.1608 20.8093C34.1027 20.7512 34.07 20.6723 34.07 20.5901V17.8701C34.0713 17.8036 34.0594 17.7375 34.0348 17.6757C34.0103 17.6139 33.9737 17.5576 33.9271 17.5101C33.8806 17.4626 33.825 17.4249 33.7637 17.3991C33.7024 17.3734 33.6365 17.3601 33.57 17.3601H30.43C30.3635 17.3601 30.2976 17.3734 30.2363 17.3991C30.175 17.4249 30.1194 17.4626 30.0729 17.5101C30.0263 17.5576 29.9897 17.6139 29.9652 17.6757C29.9406 17.7375 29.9287 17.8036 29.93 17.8701V20.5901C29.93 20.6723 29.8973 20.7512 29.8392 20.8093C29.7811 20.8674 29.7022 20.9001 29.62 20.9001H28.74C28.6813 20.9009 28.6241 20.919 28.5755 20.952C28.527 20.985 28.4892 21.0316 28.4668 21.0859C28.4445 21.1402 28.4385 21.1998 28.4498 21.2575C28.461 21.3151 28.4889 21.3682 28.53 21.4101Z" fill="#4041D1"/>
</svg>
