<svg width="64" height="64" viewBox="0 0 64 64" fill="none" xmlns="http://www.w3.org/2000/svg">
<path d="M8.17999 23.9999C8.54156 21.6257 9.52902 19.3906 11.0408 17.5246C12.5526 15.6585 14.5342 14.2289 16.7817 13.3826C19.0293 12.5363 21.4617 12.304 23.8288 12.7095C26.1959 13.115 28.4123 14.1438 30.25 15.6899C30.7383 16.1056 31.3587 16.3338 32 16.3338C32.6413 16.3338 33.2616 16.1056 33.75 15.6899C36.3656 13.519 39.7034 12.4139 43.0977 12.5949C46.4921 12.7759 49.6934 14.2298 52.0633 16.6665C54.4332 19.1033 55.7974 22.3439 55.8839 25.7419C55.9704 29.1399 54.7728 32.4457 52.53 34.9999C51.7263 35.8799 51.0034 36.8304 50.37 37.8399L43.22 49.4399C42.8325 50.0732 42.2886 50.5962 41.6407 50.9587C40.9927 51.3212 40.2624 51.511 39.52 51.5099C38.935 51.5103 38.356 51.3927 37.8175 51.1642C37.279 50.9356 36.7922 50.6008 36.3861 50.1798C35.98 49.7587 35.663 49.2601 35.454 48.7138C35.2451 48.1674 35.1485 47.5845 35.17 46.9999L35.3 43.1699C35.3107 42.7313 35.2331 42.2949 35.0717 41.8869C34.9103 41.4789 34.6685 41.1076 34.3605 40.795C34.0526 40.4824 33.6849 40.235 33.2794 40.0674C32.8738 39.8999 32.4387 39.8157 32 39.8199C31.5629 39.821 31.1304 39.9098 30.7282 40.0809C30.3259 40.2521 29.9621 40.5021 29.6582 40.8163C29.3543 41.1305 29.1164 41.5024 28.9587 41.9101C28.801 42.3178 28.7266 42.753 28.74 43.1899L28.89 46.9999C28.9087 47.582 28.8104 48.1619 28.6008 48.7053C28.3913 49.2486 28.0747 49.7444 27.67 50.1631C27.2652 50.5819 26.7805 50.9151 26.2446 51.143C25.7086 51.3709 25.1324 51.4889 24.55 51.4899C23.8062 51.4908 23.0746 51.301 22.4251 50.9386C21.7756 50.5762 21.2298 50.0533 20.84 49.4199C19 46.4199 15.6 40.8999 13.84 38.0299C13.1587 36.962 12.3822 35.9579 11.52 35.0299C10.182 33.5529 9.18838 31.7975 8.61081 29.8901C8.03324 27.9828 7.8861 25.971 8.17999 23.9999Z" fill="#EBEEF2"/>
<path d="M41.6201 19.3599L40.0601 20.0899C39.4217 20.3893 38.7155 20.5146 38.013 20.4532C37.3105 20.3917 36.6368 20.1456 36.0601 19.7399L30.8501 16.0499C31.3171 16.2675 31.8368 16.3465 32.3473 16.2773C32.8578 16.2082 33.3378 15.9939 33.7301 15.6599C34.6625 14.8745 35.699 14.2217 36.8101 13.7199C37.6548 13.3453 38.5828 13.1981 39.5019 13.2928C40.4211 13.3875 41.2995 13.7209 42.0501 14.2599C42.4642 14.5639 42.7933 14.969 43.0059 15.4366C43.2185 15.9042 43.3075 16.4186 43.2644 16.9304C43.2212 17.4423 43.0474 17.9345 42.7595 18.3599C42.4715 18.7853 42.0792 19.1296 41.6201 19.3599Z" fill="#DCDFE2"/>
<path d="M25 33.25C27.7614 33.25 30 31.0114 30 28.25C30 25.4886 27.7614 23.25 25 23.25C22.2386 23.25 20 25.4886 20 28.25C20 31.0114 22.2386 33.25 25 33.25Z" fill="#BCBCFF"/>
<path d="M23.8 23.3901C22.875 23.6294 22.0359 24.1238 21.3781 24.8169C20.7204 25.5099 20.2707 26.3738 20.08 27.3101C19.9449 27.938 19.9695 28.5899 20.1515 29.2059C20.3335 29.8218 20.6671 30.3823 21.1218 30.836C21.5765 31.2897 22.1377 31.6221 22.7541 31.8028C23.3705 31.9834 24.0224 32.0066 24.65 31.8701C25.5855 31.6814 26.4491 31.2334 27.1423 30.5774C27.8354 29.9214 28.3301 29.0838 28.57 28.1601C28.57 28.1601 28.57 28.1101 28.57 28.0801C28.7279 27.43 28.7158 26.7503 28.5351 26.1062C28.3543 25.4621 28.0109 24.8753 27.5378 24.4023C27.0648 23.9293 26.4781 23.5859 25.834 23.4051C25.1899 23.2243 24.5101 23.2123 23.86 23.3701L23.8 23.3901Z" fill="#4041D1"/>
<path d="M38.3201 26.6599C38.3201 27.0555 38.2028 27.4422 37.983 27.7711C37.7632 28.1 37.4509 28.3563 37.0854 28.5077C36.72 28.659 36.3179 28.6987 35.9299 28.6215C35.5419 28.5443 35.1856 28.3538 34.9059 28.0741C34.6261 27.7944 34.4357 27.4381 34.3585 27.0501C34.2813 26.6621 34.3209 26.26 34.4723 25.8945C34.6237 25.5291 34.88 25.2167 35.2089 24.997C35.5378 24.7772 35.9245 24.6599 36.3201 24.6599C36.8505 24.6599 37.3592 24.8706 37.7343 25.2457C38.1094 25.6208 38.3201 26.1295 38.3201 26.6599Z" fill="#BCBCFF"/>
<path d="M35.89 24.7601C35.5279 24.8532 35.1992 25.0459 34.9412 25.3164C34.6831 25.5868 34.506 25.9241 34.43 26.2901C34.3779 26.5361 34.3881 26.7912 34.4596 27.0323C34.5311 27.2734 34.6617 27.4928 34.8395 27.6706C35.0173 27.8484 35.2367 27.979 35.4778 28.0505C35.7188 28.122 35.974 28.1322 36.22 28.0801C36.5865 28.0065 36.9251 27.8317 37.1973 27.5754C37.4695 27.3191 37.6645 26.9916 37.76 26.6301C37.8218 26.3757 37.8173 26.1097 37.7469 25.8575C37.6766 25.6054 37.5427 25.3755 37.358 25.1898C37.1734 25.0042 36.9443 24.8691 36.6925 24.7973C36.4407 24.7256 36.1747 24.7197 35.92 24.7801L35.89 24.7601Z" fill="#4041D1"/>
<path d="M35.5999 35.45C36.4062 35.45 37.0599 34.7964 37.0599 33.99C37.0599 33.1837 36.4062 32.53 35.5999 32.53C34.7936 32.53 34.1399 33.1837 34.1399 33.99C34.1399 34.7964 34.7936 35.45 35.5999 35.45Z" fill="#BCBCFF"/>
<path d="M35.2499 32.5801C34.9811 32.6496 34.7372 32.7934 34.5463 32.995C34.3553 33.1966 34.2249 33.4479 34.1699 33.7201C34.1307 33.9029 34.1379 34.0927 34.1908 34.2721C34.2438 34.4514 34.3408 34.6147 34.4731 34.7469C34.6053 34.8792 34.7686 34.9762 34.9479 35.0292C35.1273 35.0821 35.3171 35.0893 35.4999 35.0501C35.7684 34.9975 36.0171 34.8716 36.2184 34.6862C36.4196 34.5009 36.5655 34.2634 36.6399 34.0001C36.6872 33.8108 36.6846 33.6126 36.6325 33.4246C36.5804 33.2366 36.4805 33.0653 36.3426 32.9274C36.2047 32.7895 36.0334 32.6896 35.8454 32.6375C35.6574 32.5854 35.4592 32.5828 35.2699 32.6301L35.2499 32.5801Z" fill="#4041D1"/>
<path d="M45.5301 30.3301C45.5301 30.7672 45.4005 31.1945 45.1577 31.5579C44.9148 31.9214 44.5697 32.2046 44.1658 32.3719C43.762 32.5392 43.3177 32.5829 42.889 32.4977C42.4603 32.4124 42.0665 32.2019 41.7574 31.8928C41.4483 31.5837 41.2378 31.19 41.1526 30.7613C41.0673 30.3326 41.1111 29.8882 41.2783 29.4844C41.4456 29.0806 41.7289 28.7354 42.0923 28.4926C42.4557 28.2497 42.883 28.1201 43.3201 28.1201C43.9062 28.1201 44.4684 28.353 44.8828 28.7674C45.2973 29.1819 45.5301 29.744 45.5301 30.3301Z" fill="#BCBCFF"/>
<path d="M42.79 28.1799C42.3821 28.2857 42.012 28.504 41.7221 28.8099C41.4321 29.1157 41.2339 29.4969 41.15 29.9099C41.0926 30.1847 41.1045 30.4694 41.1847 30.7384C41.2648 31.0074 41.4108 31.2522 41.6092 31.4507C41.8077 31.6492 42.0525 31.7951 42.3215 31.8752C42.5905 31.9554 42.8752 31.9673 43.15 31.9099C43.564 31.8282 43.9463 31.6308 44.2525 31.3405C44.5588 31.0502 44.7763 30.6789 44.88 30.2699C44.9502 29.9814 44.945 29.6797 44.8648 29.3938C44.7847 29.108 44.6323 28.8475 44.4224 28.6376C44.2124 28.4276 43.952 28.2752 43.6661 28.1951C43.3802 28.1149 43.0785 28.1097 42.79 28.1799Z" fill="#4041D1"/>
</svg>
