<svg width="40" height="40" viewBox="0 0 40 40" fill="none" xmlns="http://www.w3.org/2000/svg">
<path d="M5.11912 15.1069C5.36999 13.6477 6.00185 12.2806 6.95076 11.144C7.89966 10.0073 9.13195 9.14149 10.5229 8.63406C11.9139 8.12663 13.4143 7.9956 14.8722 8.25424C16.3301 8.51287 17.6938 9.15199 18.8254 10.1069C19.128 10.367 19.5138 10.51 19.9129 10.51C20.3119 10.51 20.6977 10.367 21.0004 10.1069C22.5891 8.80185 24.6013 8.12476 26.6558 8.20394C28.7103 8.28312 30.6644 9.11306 32.148 10.5365C33.6316 11.96 34.5416 13.8782 34.7056 15.9277C34.8696 17.9772 34.2762 20.0156 33.0379 21.6569C32.2041 22.6868 31.4299 23.7636 30.7191 24.8819L26.8941 31.0944C26.6517 31.4882 26.3125 31.8133 25.9087 32.0386C25.505 32.264 25.0502 32.3822 24.5879 32.3819C24.2258 32.3821 23.8674 32.3095 23.534 32.1684C23.2006 32.0272 22.899 31.8205 22.6471 31.5604C22.3952 31.3004 22.1981 30.9923 22.0677 30.6546C21.9373 30.3168 21.8761 29.9563 21.8879 29.5944L21.9629 27.2069C21.9713 26.9334 21.9244 26.661 21.8249 26.406C21.7254 26.151 21.5754 25.9188 21.384 25.7233C21.1925 25.5277 20.9635 25.3729 20.7107 25.268C20.4579 25.1632 20.1865 25.1105 19.9129 25.1132C19.641 25.1139 19.3721 25.169 19.1219 25.2753C18.8717 25.3816 18.6452 25.5368 18.4559 25.7319C18.2667 25.927 18.1183 26.1581 18.0197 26.4114C17.9211 26.6647 17.8741 26.9352 17.8816 27.2069L17.9629 29.5944C17.9728 29.9548 17.9109 30.3136 17.7806 30.6497C17.6503 30.9859 17.4544 31.2927 17.2041 31.5522C16.9539 31.8118 16.6545 32.0188 16.3233 32.1613C15.9921 32.3037 15.6359 32.3787 15.2754 32.3819C14.8138 32.3823 14.3599 32.2642 13.9571 32.0387C13.5544 31.8133 13.2163 31.4881 12.9754 31.0944C12.0004 29.5132 10.3316 26.8069 9.18161 24.9319C8.60662 24.0007 7.51286 22.6007 6.83161 21.7444C6.09451 20.8212 5.56089 19.7527 5.26576 18.6088C4.97063 17.4649 4.92065 16.2715 5.11912 15.1069Z" fill="#BCBCFF"/>
<path d="M30.9567 24.5132C30.9266 24.5188 30.8956 24.5172 30.8663 24.5085C30.837 24.4998 30.8101 24.4843 30.7879 24.4632L29.4879 23.1507L26.3254 19.9882C26.2408 19.9087 26.1291 19.8644 26.0129 19.8644C25.8968 19.8644 25.785 19.9087 25.7004 19.9882C25.5897 20.0967 25.5233 20.2425 25.514 20.3973C25.5048 20.5521 25.5534 20.7048 25.6504 20.8257L28.4754 24.0195C28.4935 24.0435 28.5022 24.0733 28.5001 24.1033C28.498 24.1333 28.4851 24.1616 28.4638 24.1828C28.4425 24.2041 28.4143 24.217 28.3843 24.2191C28.3543 24.2213 28.3245 24.2125 28.3004 24.1945L24.5504 20.7195C24.4665 20.6385 24.3545 20.5932 24.2379 20.5932C24.1213 20.5932 24.0093 20.6385 23.9254 20.7195L23.8317 20.8132C23.7507 20.8971 23.7055 21.0091 23.7055 21.1257C23.7055 21.2423 23.7507 21.3543 23.8317 21.4382L27.3442 25.1382C27.3563 25.1493 27.366 25.1628 27.3726 25.1779C27.3792 25.193 27.3826 25.2092 27.3826 25.2257C27.3826 25.2422 27.3792 25.2584 27.3726 25.2735C27.366 25.2886 27.3563 25.3021 27.3442 25.3132C27.3208 25.3361 27.2894 25.3489 27.2567 25.3489C27.224 25.3489 27.1925 25.3361 27.1692 25.3132L23.5254 22.0632C23.4408 21.9837 23.3291 21.9394 23.2129 21.9394C23.0968 21.9394 22.985 21.9837 22.9004 22.0632L22.8067 22.157C22.7285 22.2422 22.6851 22.3538 22.6851 22.4695C22.6851 22.5852 22.7285 22.6967 22.8067 22.782L26.1629 26.3007C26.1832 26.3217 26.1945 26.3497 26.1945 26.3788C26.1945 26.408 26.1832 26.436 26.1629 26.457C26.1423 26.4754 26.1156 26.4856 26.0879 26.4856C26.0603 26.4856 26.0336 26.4754 26.0129 26.457L23.4067 24.257C23.2735 24.141 23.102 24.0786 22.9254 24.082C22.8289 24.0723 22.7317 24.0921 22.6466 24.1386C22.5615 24.1852 22.4924 24.2564 22.4485 24.3429C22.4046 24.4294 22.3878 24.5272 22.4004 24.6234C22.4131 24.7196 22.4544 24.8097 22.5192 24.882L25.1379 27.5007L25.6254 27.9882L27.5442 29.882C27.5615 29.9001 27.5803 29.9169 27.6004 29.932L30.7254 24.8695C30.7942 24.757 30.8817 24.632 30.9567 24.5132Z" fill="#DCDFE2"/>
<path d="M31.9505 22.3819L31.5817 21.8819C31.5231 21.804 31.4385 21.7499 31.3433 21.7292C31.248 21.7085 31.1485 21.7228 31.063 21.7694C30.8569 21.8945 30.7038 22.0907 30.6324 22.321C30.561 22.5512 30.5763 22.7996 30.6755 23.0194L30.863 23.4506C30.9804 23.7087 31.0684 23.9792 31.1255 24.2569C31.4692 23.7444 31.8317 23.2506 32.2067 22.7631C32.1192 22.6319 32.0442 22.4944 31.9505 22.3819Z" fill="#DCDFE2"/>
<path d="M8.71287 24.2569C8.76771 23.9862 8.85153 23.7222 8.96287 23.4694L9.15037 23.0382C9.24948 22.8184 9.26479 22.57 9.19341 22.3398C9.12203 22.1095 8.9689 21.9133 8.76287 21.7882C8.67728 21.7416 8.5778 21.7273 8.48258 21.748C8.38735 21.7687 8.30272 21.8228 8.24412 21.9007L7.87537 22.4007C7.78162 22.5257 7.70662 22.6569 7.62537 22.7882C7.99412 23.2319 8.38162 23.7507 8.71287 24.2569Z" fill="#DCDFE2"/>
<path d="M16.9003 24.0694C16.7238 24.0661 16.5523 24.1284 16.4191 24.2444L13.7941 26.4631C13.7735 26.4816 13.7468 26.4918 13.7191 26.4918C13.6914 26.4918 13.6647 26.4816 13.6441 26.4631C13.6239 26.4422 13.6125 26.4141 13.6125 26.385C13.6125 26.3559 13.6239 26.3278 13.6441 26.3069L17.0503 22.8319C17.1285 22.7466 17.1719 22.6351 17.1719 22.5194C17.1719 22.4037 17.1285 22.2922 17.0503 22.2069L16.9566 22.1131C16.872 22.0336 16.7602 21.9893 16.6441 21.9893C16.528 21.9893 16.4162 22.0336 16.3316 22.1131L12.6878 25.3631C12.6645 25.386 12.6331 25.3989 12.6003 25.3989C12.5676 25.3989 12.5362 25.386 12.5128 25.3631C12.5007 25.352 12.491 25.3385 12.4844 25.3234C12.4778 25.3084 12.4744 25.2921 12.4744 25.2756C12.4744 25.2592 12.4778 25.2429 12.4844 25.2278C12.491 25.2128 12.5007 25.1993 12.5128 25.1881L16.0253 21.4881C16.1063 21.4042 16.1515 21.2922 16.1515 21.1756C16.1515 21.059 16.1063 20.947 16.0253 20.8631L15.9316 20.7694C15.8477 20.6884 15.7357 20.6432 15.6191 20.6432C15.5025 20.6432 15.3905 20.6884 15.3066 20.7694L11.5566 24.2444C11.5325 24.2624 11.5027 24.2712 11.4727 24.2691C11.4427 24.2669 11.4145 24.254 11.3932 24.2328C11.3719 24.2115 11.359 24.1833 11.3569 24.1532C11.3548 24.1232 11.3635 24.0935 11.3816 24.0694L14.2066 20.8756C14.3036 20.7547 14.3522 20.602 14.343 20.4472C14.3338 20.2925 14.2673 20.1467 14.1566 20.0381C14.072 19.9586 13.9602 19.9143 13.8441 19.9143C13.728 19.9143 13.6162 19.9586 13.5316 20.0381L10.3691 23.2006L9.06909 24.5131C9.03506 24.5456 8.99095 24.5654 8.94409 24.5694C9.04409 24.7131 9.13159 24.8506 9.21284 24.9819L12.2816 29.9819H12.3128L14.2003 28.0069L14.6878 27.5194L17.3066 24.8819C17.3761 24.8103 17.4216 24.7189 17.4368 24.6203C17.452 24.5217 17.4363 24.4208 17.3916 24.3315C17.347 24.2423 17.2758 24.1692 17.1878 24.1222C17.0997 24.0752 16.9993 24.0568 16.9003 24.0694Z" fill="#DCDFE2"/>
<path d="M25.8942 12.3819L24.9129 12.8381C24.5149 13.0291 24.0728 13.1096 23.633 13.0711C23.1932 13.0326 22.7718 12.8766 22.4129 12.6194L19.1692 10.3256C19.4588 10.4606 19.7809 10.51 20.0976 10.4679C20.4143 10.4259 20.7124 10.2941 20.9567 10.0881C21.536 9.59881 22.1795 9.19087 22.8692 8.87563C23.3954 8.64322 23.9731 8.55211 24.5452 8.6113C25.1174 8.67049 25.6642 8.87793 26.1317 9.21313C26.397 9.39508 26.6099 9.64349 26.7491 9.93352C26.8883 10.2236 26.9489 10.545 26.9248 10.8659C26.9008 11.1867 26.7929 11.4955 26.6121 11.7616C26.4312 12.0276 26.1837 12.2415 25.8942 12.3819Z" fill="#DCDFE2"/>
<path d="M10.0504 13.9757C9.84216 13.9749 9.6388 13.9123 9.46622 13.7957C9.29364 13.6791 9.15963 13.5138 9.08124 13.3209C9.00285 13.1279 8.98361 12.916 9.02599 12.7121C9.06836 12.5081 9.17042 12.3214 9.31919 12.1757C10.4026 11.109 11.8613 10.5098 13.3817 10.5069C13.526 10.4958 13.671 10.5145 13.8077 10.5621C13.9443 10.6096 14.0697 10.6849 14.1759 10.7832C14.2821 10.8815 14.3668 11.0007 14.4248 11.1333C14.4827 11.2659 14.5126 11.4091 14.5126 11.5538C14.5126 11.6985 14.4827 11.8416 14.4248 11.9742C14.3668 12.1068 14.2821 12.226 14.1759 12.3243C14.0697 12.4226 13.9443 12.4979 13.8077 12.5455C13.671 12.593 13.526 12.6118 13.3817 12.6007C12.4118 12.598 11.48 12.9774 10.7879 13.6569C10.5941 13.8567 10.3288 13.9714 10.0504 13.9757Z" fill="white"/>
<path d="M8.61286 17.3819C8.33547 17.3802 8.07 17.2689 7.87444 17.0721C7.67887 16.8754 7.56911 16.6093 7.56911 16.3319C7.56257 16.28 7.56257 16.2275 7.56911 16.1756C7.59835 15.9088 7.72865 15.6633 7.93324 15.4896C8.13783 15.3159 8.40119 15.2271 8.6692 15.2415C8.93721 15.2559 9.18954 15.3724 9.37434 15.567C9.55914 15.7617 9.66238 16.0197 9.66286 16.2881V16.3381C9.66121 16.6155 9.54986 16.881 9.35312 17.0765C9.15639 17.2721 8.89026 17.3819 8.61286 17.3819Z" fill="white"/>
<path d="M31.0629 20.5819C30.8558 20.7061 30.7018 20.9023 30.6303 21.1329C30.5588 21.3635 30.5748 21.6124 30.6754 21.8319L30.8629 22.2632C30.9908 22.5315 31.0913 22.8121 31.1629 23.1007C31.1689 23.1428 31.1618 23.1858 31.1425 23.2237C31.1232 23.2617 31.0926 23.2927 31.0549 23.3126C31.0173 23.3324 30.9744 23.3401 30.9322 23.3346C30.8899 23.3292 30.8504 23.3107 30.8191 23.2819L29.5191 21.9694L26.3566 18.8069C26.272 18.7274 26.1602 18.6831 26.0441 18.6831C25.928 18.6831 25.8162 18.7274 25.7316 18.8069C25.6209 18.9155 25.5544 19.0613 25.5452 19.216C25.536 19.3708 25.5846 19.5235 25.6816 19.6444L28.5066 22.8382C28.5247 22.8623 28.5334 22.892 28.5313 22.922C28.5292 22.9521 28.5163 22.9803 28.495 23.0016C28.4737 23.0228 28.4455 23.0357 28.4155 23.0379C28.3855 23.04 28.3557 23.0312 28.3316 23.0132L24.5816 19.5382C24.4977 19.4572 24.3857 19.412 24.2691 19.412C24.1525 19.412 24.0405 19.4572 23.9566 19.5382L23.8629 19.6319C23.7819 19.7158 23.7367 19.8278 23.7367 19.9444C23.7367 20.061 23.7819 20.173 23.8629 20.2569L27.3754 23.9569C27.3987 23.9813 27.4117 24.0138 27.4117 24.0476C27.4117 24.0813 27.3987 24.1138 27.3754 24.1382C27.352 24.1611 27.3206 24.1739 27.2879 24.1739C27.2551 24.1739 27.2237 24.1611 27.2004 24.1382L23.5566 20.8882C23.4713 20.81 23.3598 20.7666 23.2441 20.7666C23.1284 20.7666 23.0169 20.81 22.9316 20.8882L22.8379 20.9819C22.7597 21.0672 22.7163 21.1787 22.7163 21.2944C22.7163 21.4101 22.7597 21.5216 22.8379 21.6069L26.1629 25.1194C26.1831 25.1404 26.1944 25.1684 26.1944 25.1976C26.1944 25.2267 26.1831 25.2547 26.1629 25.2757C26.1422 25.2941 26.1155 25.3043 26.0879 25.3043C26.0602 25.3043 26.0335 25.2941 26.0129 25.2757L23.3879 23.0632C23.2553 22.9455 23.0839 22.8809 22.9066 22.8819C22.8089 22.8709 22.7101 22.89 22.6236 22.9368C22.5371 22.9836 22.4669 23.0557 22.4227 23.1436C22.3784 23.2314 22.3622 23.3307 22.376 23.4281C22.3899 23.5254 22.4333 23.6162 22.5004 23.6882L25.1191 26.3069L25.6066 26.7944L27.5254 28.7132C27.8208 29.0087 28.1715 29.2432 28.5576 29.4032C28.9437 29.5631 29.3575 29.6455 29.7754 29.6455C30.1932 29.6455 30.607 29.5631 30.9931 29.4032C31.3792 29.2432 31.7299 29.0087 32.0254 28.7132L32.0941 28.6444C32.5849 28.161 32.9588 27.5719 33.1873 26.922C33.4159 26.2721 33.493 25.5786 33.4129 24.8944C33.2554 23.5364 32.7447 22.2434 31.9316 21.1444L31.5629 20.6444C31.4993 20.5783 31.415 20.5359 31.3239 20.5246C31.2329 20.5132 31.1407 20.5334 31.0629 20.5819Z" fill="#4041D1"/>
<path d="M8.24413 20.6882L7.87538 21.1882C7.06228 22.2872 6.55154 23.5802 6.39413 24.9382C6.31399 25.6224 6.39113 26.3159 6.61967 26.9658C6.84821 27.6157 7.22211 28.2048 7.71288 28.6882L7.78163 28.757C8.07705 29.0525 8.42781 29.287 8.81388 29.447C9.19994 29.6069 9.61374 29.6893 10.0316 29.6893C10.4495 29.6893 10.8633 29.6069 11.2494 29.447C11.6354 29.287 11.9862 29.0525 12.2816 28.757L14.2004 26.8382L14.6879 26.3507L17.3066 23.732C17.3737 23.66 17.4171 23.5692 17.4309 23.4719C17.4448 23.3745 17.4285 23.2752 17.3843 23.1874C17.34 23.0995 17.2699 23.0274 17.1834 22.9806C17.0969 22.9338 16.9981 22.9147 16.9004 22.9257C16.7231 22.9247 16.5517 22.9893 16.4191 23.107L13.7941 25.3195C13.7735 25.3379 13.7468 25.3481 13.7191 25.3481C13.6915 25.3481 13.6648 25.3379 13.6441 25.3195C13.6239 25.2985 13.6126 25.2705 13.6126 25.2414C13.6126 25.2122 13.6239 25.1842 13.6441 25.1632L17.0504 21.6882C17.1286 21.6029 17.1719 21.4914 17.1719 21.3757C17.1719 21.26 17.1286 21.1485 17.0504 21.0632L16.9566 20.9695C16.8713 20.8913 16.7598 20.8479 16.6441 20.8479C16.5284 20.8479 16.4169 20.8913 16.3316 20.9695L12.6879 24.2195C12.6645 24.2424 12.6331 24.2552 12.6004 24.2552C12.5677 24.2552 12.5362 24.2424 12.5129 24.2195C12.4896 24.1951 12.4766 24.1626 12.4766 24.1289C12.4766 24.0951 12.4896 24.0626 12.5129 24.0382L16.0254 20.3382C16.1063 20.2543 16.1516 20.1423 16.1516 20.0257C16.1516 19.9091 16.1063 19.7971 16.0254 19.7132L15.9316 19.6195C15.8477 19.5385 15.7357 19.4933 15.6191 19.4933C15.5025 19.4933 15.3905 19.5385 15.3066 19.6195L11.5566 23.0945C11.5326 23.1125 11.5028 23.1213 11.4728 23.1192C11.4428 23.117 11.4145 23.1041 11.3932 23.0829C11.372 23.0616 11.3591 23.0334 11.3569 23.0033C11.3548 22.9733 11.3636 22.9435 11.3816 22.9195L14.2066 19.7257C14.3037 19.6048 14.3523 19.4521 14.343 19.2973C14.3338 19.1426 14.2674 18.9968 14.1566 18.8882C14.072 18.8087 13.9603 18.7644 13.8441 18.7644C13.728 18.7644 13.6162 18.8087 13.5316 18.8882L10.3691 22.0507L9.06913 23.3632C9.03779 23.392 8.9983 23.4105 8.95608 23.4159C8.91386 23.4214 8.87098 23.4137 8.83332 23.3939C8.79566 23.374 8.76507 23.343 8.74574 23.305C8.72641 23.2671 8.7193 23.2241 8.72538 23.182C8.78648 22.8924 8.87652 22.6098 8.99413 22.3382L9.18163 21.907C9.28214 21.6874 9.29818 21.4386 9.22669 21.2079C9.1552 20.9773 9.00119 20.7812 8.79413 20.657C8.71591 20.5907 8.61524 20.557 8.51289 20.5628C8.41054 20.5686 8.31434 20.6135 8.24413 20.6882Z" fill="#4041D1"/>
</svg>
