<svg width="64" height="64" viewBox="0 0 64 64" fill="none" xmlns="http://www.w3.org/2000/svg">
<path d="M32 25.29C40.24 25.29 47.51 26.11 51.83 27.37C52.2986 27.5175 52.7947 27.5554 53.2803 27.4809C53.7658 27.4065 54.2278 27.2216 54.6306 26.9404C55.0334 26.6593 55.3664 26.2895 55.6038 25.8595C55.8412 25.4295 55.9767 24.9507 56 24.46V24.41C56 18.69 45.25 14 32 14C18.75 14 8 18.69 8 24.41V24.46C8.02325 24.9507 8.15881 25.4295 8.39622 25.8595C8.63363 26.2895 8.96657 26.6593 9.3694 26.9404C9.77223 27.2216 10.2342 27.4065 10.7197 27.4809C11.2053 27.5554 11.7014 27.5175 12.17 27.37C16.49 26.11 23.76 25.29 32 25.29Z" fill="#BCBCFF"/>
<path d="M32 16.9299C19.41 16.9299 9.20996 21.3399 9.20996 26.7799C9.62907 27.1059 10.1196 27.3275 10.6412 27.4266C11.1628 27.5257 11.7005 27.4994 12.21 27.3499C16.53 26.0899 23.8 25.2699 32.04 25.2699C40.28 25.2699 47.55 26.0899 51.87 27.3499C52.3794 27.4994 52.9171 27.5257 53.4387 27.4266C53.9603 27.3275 54.4509 27.1059 54.87 26.7799C54.79 21.3399 44.59 16.9299 32 16.9299Z" fill="#4041D1"/>
<path d="M27.69 18.79C26.5469 18.79 25.4507 19.2441 24.6424 20.0524C23.8341 20.8607 23.38 21.957 23.38 23.1V27.25C23.3788 27.5612 23.4744 27.8651 23.6536 28.1195C23.8328 28.3739 24.0866 28.5663 24.38 28.67C26.5111 29.3231 28.7889 29.3231 30.92 28.67C31.2134 28.5663 31.4673 28.3739 31.6464 28.1195C31.8256 27.8651 31.9212 27.5612 31.92 27.25V23.1C31.9202 21.9707 31.4771 20.8864 30.6861 20.0803C29.895 19.2743 28.8192 18.811 27.69 18.79Z" fill="#EBEEF2"/>
<path d="M20 20.77C19.1142 20.77 18.2647 21.1219 17.6383 21.7483C17.0119 22.3747 16.66 23.2242 16.66 24.11V27.32C16.66 27.5656 16.7373 27.8049 16.8809 28.0042C17.0244 28.2034 17.2271 28.3524 17.46 28.43C19.1155 28.9366 20.8846 28.9366 22.54 28.43C22.7747 28.3551 22.9791 28.2068 23.1231 28.007C23.2671 27.8071 23.3431 27.5663 23.34 27.32V24.11C23.3414 23.671 23.2559 23.2361 23.0885 22.8303C22.9211 22.4245 22.6751 22.0558 22.3647 21.7454C22.0543 21.4349 21.6856 21.189 21.2798 21.0216C20.8739 20.8542 20.439 20.7687 20 20.77Z" fill="#DCDFE2"/>
<path d="M13.6 22.5801C13.1934 22.5801 12.7908 22.6603 12.4152 22.8162C12.0397 22.9722 11.6986 23.2007 11.4115 23.4887C11.1245 23.7766 10.8971 24.1185 10.7424 24.4945C10.5877 24.8706 10.5087 25.2735 10.51 25.6801V27.6801C10.5138 27.9031 10.5871 28.1194 10.7198 28.2987C10.8524 28.478 11.0378 28.6113 11.25 28.6801C12.7799 29.1601 14.4201 29.1601 15.95 28.6801C16.1622 28.6113 16.3476 28.478 16.4803 28.2987C16.613 28.1194 16.6863 27.9031 16.69 27.6801V25.6801C16.6913 25.2735 16.6124 24.8706 16.4577 24.4945C16.303 24.1185 16.0756 23.7766 15.7885 23.4887C15.5015 23.2007 15.1604 22.9722 14.7848 22.8162C14.4093 22.6603 14.0067 22.5801 13.6 22.5801Z" fill="#DCDFE2"/>
<path d="M36.31 18.79C37.453 18.79 38.5493 19.2441 39.3576 20.0524C40.1659 20.8607 40.62 21.957 40.62 23.1V27.25C40.6212 27.5612 40.5256 27.8651 40.3464 28.1195C40.1672 28.3739 39.9133 28.5663 39.62 28.67C37.4889 29.3231 35.2111 29.3231 33.08 28.67C32.7866 28.5663 32.5327 28.3739 32.3535 28.1195C32.1744 27.8651 32.0788 27.5612 32.08 27.25V23.1C32.0798 21.9707 32.5229 20.8864 33.3139 20.0803C34.105 19.2743 35.1808 18.811 36.31 18.79Z" fill="#EBEEF2"/>
<path d="M44 20.77C44.8858 20.77 45.7354 21.1219 46.3617 21.7483C46.9881 22.3747 47.34 23.2242 47.34 24.11V27.32C47.34 27.5656 47.2628 27.8049 47.1192 28.0042C46.9756 28.2034 46.773 28.3524 46.54 28.43C44.8846 28.9366 43.1154 28.9366 41.46 28.43C41.2254 28.3551 41.021 28.2068 40.877 28.007C40.7329 27.8071 40.6569 27.5663 40.66 27.32V24.11C40.6587 23.671 40.7442 23.2361 40.9116 22.8303C41.0789 22.4245 41.3249 22.0558 41.6353 21.7454C41.9457 21.4349 42.3145 21.189 42.7203 21.0216C43.1261 20.8542 43.561 20.7687 44 20.77Z" fill="#DCDFE2"/>
<path d="M50.4 22.5801C50.8066 22.5801 51.2092 22.6603 51.5848 22.8162C51.9603 22.9722 52.3014 23.2007 52.5885 23.4887C52.8755 23.7766 53.1029 24.1185 53.2576 24.4945C53.4123 24.8706 53.4913 25.2735 53.49 25.6801V27.6801C53.4862 27.9031 53.4129 28.1194 53.2802 28.2987C53.1475 28.478 52.9621 28.6113 52.75 28.6801C51.2201 29.1601 49.5798 29.1601 48.05 28.6801C47.8378 28.6113 47.6524 28.478 47.5197 28.2987C47.387 28.1194 47.3137 27.9031 47.31 27.6801V25.6801C47.3086 25.2735 47.3876 24.8706 47.5423 24.4945C47.697 24.1185 47.9244 23.7766 48.2114 23.4887C48.4985 23.2007 48.8396 22.9722 49.2151 22.8162C49.5907 22.6603 49.9933 22.5801 50.4 22.5801Z" fill="#DCDFE2"/>
<path d="M53.87 27.54C53.7542 27.542 53.6415 27.5029 53.5518 27.4297C53.4621 27.3565 53.4013 27.2539 53.38 27.14C52.57 26.35 44.81 25.29 32 25.29C19.19 25.29 11.43 26.35 10.62 27.14C10.5988 27.2539 10.5379 27.3565 10.4482 27.4297C10.3585 27.5029 10.2458 27.542 10.13 27.54C9.9974 27.54 9.87022 27.4874 9.77645 27.3936C9.68268 27.2998 9.63 27.1726 9.63 27.04C9.63 26.52 9.63 25.66 16.49 24.95C20.63 24.53 26.14 24.29 32 24.29C37.86 24.29 43.37 24.53 47.51 24.95C54.37 25.66 54.37 26.52 54.37 27.04C54.37 27.1726 54.3173 27.2998 54.2236 27.3936C54.1298 27.4874 54.0026 27.54 53.87 27.54Z" fill="#BCBCFF"/>
<path d="M28.02 23.3899H27.35C26.8806 23.3899 26.5 23.7705 26.5 24.2399V25.3299C26.5 25.7993 26.8806 26.1799 27.35 26.1799H28.02C28.4894 26.1799 28.87 25.7993 28.87 25.3299V24.2399C28.87 23.7705 28.4894 23.3899 28.02 23.3899Z" fill="#4041D1"/>
<path d="M20.3301 23.77H19.6601C19.1906 23.77 18.8101 24.1506 18.8101 24.62V25.71C18.8101 26.1795 19.1906 26.56 19.6601 26.56H20.3301C20.7995 26.56 21.1801 26.1795 21.1801 25.71V24.62C21.1801 24.1506 20.7995 23.77 20.3301 23.77Z" fill="#4041D1"/>
<path d="M13.93 24.6399H13.26C12.7906 24.6399 12.41 25.0205 12.41 25.4899V26.5799C12.41 27.0493 12.7906 27.4299 13.26 27.4299H13.93C14.3995 27.4299 14.78 27.0493 14.78 26.5799V25.4899C14.78 25.0205 14.3995 24.6399 13.93 24.6399Z" fill="#4041D1"/>
<path d="M36.58 26.1899H37.25C37.7194 26.1899 38.1 25.8094 38.1 25.3399V24.2499C38.1 23.7805 37.7194 23.3999 37.25 23.3999H36.58C36.1105 23.3999 35.73 23.7805 35.73 24.2499V25.3399C35.73 25.8094 36.1105 26.1899 36.58 26.1899Z" fill="#4041D1"/>
<path d="M44.27 26.5601H44.94C45.4095 26.5601 45.79 26.1795 45.79 25.7101V24.6201C45.79 24.1506 45.4095 23.7701 44.94 23.7701H44.27C43.8006 23.7701 43.42 24.1506 43.42 24.6201V25.7101C43.42 26.1795 43.8006 26.5601 44.27 26.5601Z" fill="#4041D1"/>
<path d="M50.6699 27.4399H51.3399C51.8094 27.4399 52.1899 27.0594 52.1899 26.5899V25.4999C52.1899 25.0305 51.8094 24.6499 51.3399 24.6499H50.6699C50.2005 24.6499 49.8199 25.0305 49.8199 25.4999V26.5899C49.8199 27.0594 50.2005 27.4399 50.6699 27.4399Z" fill="#4041D1"/>
<path d="M32 38.71C23.76 38.71 16.49 37.89 12.17 36.63C11.7014 36.4825 11.2053 36.4446 10.7197 36.519C10.2342 36.5935 9.77223 36.7784 9.3694 37.0595C8.96657 37.3406 8.63363 37.7105 8.39622 38.1405C8.15881 38.5705 8.02325 39.0493 8 39.54V39.59C8 45.31 18.75 50 32 50C45.25 50 56 45.35 56 39.63V39.58C55.9767 39.0893 55.8412 38.6105 55.6038 38.1805C55.3664 37.7505 55.0334 37.3806 54.6306 37.0995C54.2278 36.8184 53.7658 36.6335 53.2803 36.559C52.7947 36.4846 52.2986 36.5225 51.83 36.67C47.51 37.89 40.24 38.71 32 38.71Z" fill="#BCBCFF"/>
<path d="M32 47.07C44.59 47.07 54.79 42.66 54.79 37.22C54.3709 36.894 53.8804 36.6724 53.3588 36.5733C52.8372 36.4742 52.2995 36.5005 51.79 36.65C47.51 37.89 40.24 38.71 32 38.71C23.76 38.71 16.49 37.89 12.17 36.63C11.6606 36.4805 11.1229 36.4542 10.6013 36.5533C10.0797 36.6524 9.58915 36.874 9.17004 37.2C9.21004 42.66 19.41 47.07 32 47.07Z" fill="#4041D1"/>
<path d="M36.31 45.2099C37.453 45.2099 38.5493 44.7558 39.3576 43.9475C40.1659 43.1393 40.62 42.043 40.62 40.8999V36.7499C40.6212 36.4387 40.5256 36.1349 40.3464 35.8805C40.1672 35.626 39.9133 35.4336 39.62 35.3299C37.4889 34.6768 35.2111 34.6768 33.08 35.3299C32.7866 35.4336 32.5327 35.626 32.3535 35.8805C32.1744 36.1349 32.0788 36.4387 32.08 36.7499V40.8999C32.0798 42.0293 32.5229 43.1136 33.3139 43.9196C34.105 44.7256 35.1808 45.1889 36.31 45.2099Z" fill="#EBEEF2"/>
<path d="M44 43.2299C44.8858 43.2299 45.7354 42.878 46.3617 42.2516C46.9881 41.6253 47.34 40.7757 47.34 39.8899V36.6799C47.34 36.4343 47.2628 36.195 47.1192 35.9958C46.9756 35.7965 46.773 35.6476 46.54 35.5699C44.8846 35.0633 43.1154 35.0633 41.46 35.5699C41.2254 35.6448 41.021 35.7931 40.877 35.993C40.7329 36.1928 40.6569 36.4336 40.66 36.6799V39.8899C40.6587 40.3289 40.7442 40.7638 40.9116 41.1696C41.0789 41.5754 41.3249 41.9442 41.6353 42.2546C41.9457 42.565 42.3145 42.811 42.7203 42.9783C43.1261 43.1457 43.561 43.2312 44 43.2299Z" fill="#DCDFE2"/>
<path d="M50.4 41.42C50.8066 41.42 51.2092 41.3397 51.5848 41.1838C51.9603 41.0279 52.3014 40.7994 52.5885 40.5114C52.8755 40.2234 53.1029 39.8816 53.2576 39.5055C53.4123 39.1295 53.4913 38.7266 53.49 38.32V36.32C53.4862 36.0969 53.4129 35.8807 53.2802 35.7014C53.1475 35.5221 52.9621 35.3887 52.75 35.32C51.2201 34.84 49.5798 34.84 48.05 35.32C47.8378 35.3887 47.6524 35.5221 47.5197 35.7014C47.387 35.8807 47.3137 36.0969 47.31 36.32V38.32C47.3086 38.7266 47.3876 39.1295 47.5423 39.5055C47.697 39.8816 47.9244 40.2234 48.2114 40.5114C48.4985 40.7994 48.8396 41.0279 49.2151 41.1838C49.5907 41.3397 49.9933 41.42 50.4 41.42Z" fill="#DCDFE2"/>
<path d="M27.69 45.2099C26.5469 45.2099 25.4507 44.7558 24.6424 43.9475C23.8341 43.1393 23.38 42.043 23.38 40.8999V36.7499C23.3788 36.4387 23.4744 36.1349 23.6536 35.8805C23.8328 35.626 24.0866 35.4336 24.38 35.3299C26.5111 34.6768 28.7889 34.6768 30.92 35.3299C31.2134 35.4336 31.4673 35.626 31.6464 35.8805C31.8256 36.1349 31.9212 36.4387 31.92 36.7499V40.8999C31.9202 42.0293 31.4771 43.1136 30.6861 43.9196C29.895 44.7256 28.8192 45.1889 27.69 45.2099Z" fill="#EBEEF2"/>
<path d="M20 43.2299C19.1142 43.2299 18.2647 42.878 17.6383 42.2516C17.0119 41.6253 16.66 40.7757 16.66 39.8899V36.6799C16.66 36.4343 16.7373 36.195 16.8809 35.9958C17.0244 35.7965 17.2271 35.6476 17.46 35.5699C19.1155 35.0633 20.8846 35.0633 22.54 35.5699C22.7747 35.6448 22.9791 35.7931 23.1231 35.993C23.2671 36.1928 23.3431 36.4336 23.34 36.6799V39.8899C23.3414 40.3289 23.2559 40.7638 23.0885 41.1696C22.9211 41.5754 22.6751 41.9442 22.3647 42.2546C22.0543 42.565 21.6856 42.811 21.2798 42.9783C20.8739 43.1457 20.439 43.2312 20 43.2299Z" fill="#DCDFE2"/>
<path d="M13.6 41.42C13.1934 41.42 12.7908 41.3397 12.4152 41.1838C12.0397 41.0279 11.6986 40.7994 11.4115 40.5114C11.1245 40.2234 10.8971 39.8816 10.7424 39.5055C10.5877 39.1295 10.5087 38.7266 10.51 38.32V36.32C10.5138 36.0969 10.5871 35.8807 10.7198 35.7014C10.8524 35.5221 11.0378 35.3887 11.25 35.32C12.7799 34.84 14.4201 34.84 15.95 35.32C16.1622 35.3887 16.3476 35.5221 16.4803 35.7014C16.613 35.8807 16.6863 36.0969 16.69 36.32V38.32C16.6913 38.7266 16.6124 39.1295 16.4577 39.5055C16.303 39.8816 16.0756 40.2234 15.7885 40.5114C15.5015 40.7994 15.1604 41.0279 14.7848 41.1838C14.4093 41.3397 14.0067 41.42 13.6 41.42Z" fill="#DCDFE2"/>
<path d="M32 39.7101C26.14 39.7101 20.63 39.4701 16.49 39.0501C9.63 38.3401 9.63 37.4801 9.63 37.0001C9.63 36.8675 9.68268 36.7403 9.77645 36.6465C9.87022 36.5527 9.9974 36.5001 10.13 36.5001C10.2458 36.4981 10.3585 36.5372 10.4482 36.6104C10.5379 36.6836 10.5988 36.7863 10.62 36.9001C11.43 37.6901 19.19 38.7501 32 38.7501C44.81 38.7501 52.57 37.6901 53.38 36.9001C53.4013 36.7863 53.4621 36.6836 53.5518 36.6104C53.6415 36.5372 53.7542 36.4981 53.87 36.5001C54.0026 36.5001 54.1298 36.5527 54.2236 36.6465C54.3173 36.7403 54.37 36.8675 54.37 37.0001C54.37 37.5201 54.37 38.3801 47.51 39.0901C43.37 39.4701 37.86 39.7101 32 39.7101Z" fill="#BCBCFF"/>
<path d="M35.98 40.6101H36.65C37.1194 40.6101 37.5 40.2296 37.5 39.7601V38.6701C37.5 38.2007 37.1194 37.8201 36.65 37.8201H35.98C35.5106 37.8201 35.13 38.2007 35.13 38.6701V39.7601C35.13 40.2296 35.5106 40.6101 35.98 40.6101Z" fill="#4041D1"/>
<path d="M43.6699 40.23H44.3399C44.8094 40.23 45.1899 39.8494 45.1899 39.38V38.29C45.1899 37.8205 44.8094 37.44 44.3399 37.44H43.6699C43.2005 37.44 42.8199 37.8205 42.8199 38.29V39.38C42.8199 39.8494 43.2005 40.23 43.6699 40.23Z" fill="#4041D1"/>
<path d="M50.07 39.3601H50.74C51.2094 39.3601 51.59 38.9796 51.59 38.5101V37.4201C51.59 36.9507 51.2094 36.5701 50.74 36.5701H50.07C49.6005 36.5701 49.22 36.9507 49.22 37.4201V38.5101C49.22 38.9796 49.6005 39.3601 50.07 39.3601Z" fill="#4041D1"/>
<path d="M27.42 37.8101H26.75C26.2806 37.8101 25.9 38.1906 25.9 38.6601V39.7501C25.9 40.2195 26.2806 40.6001 26.75 40.6001H27.42C27.8895 40.6001 28.27 40.2195 28.27 39.7501V38.6601C28.27 38.1906 27.8895 37.8101 27.42 37.8101Z" fill="#4041D1"/>
<path d="M19.73 37.4399H19.06C18.5905 37.4399 18.21 37.8205 18.21 38.2899V39.3799C18.21 39.8494 18.5905 40.2299 19.06 40.2299H19.73C20.1994 40.2299 20.58 39.8494 20.58 39.3799V38.2899C20.58 37.8205 20.1994 37.4399 19.73 37.4399Z" fill="#4041D1"/>
<path d="M13.3301 36.5601H12.6601C12.1906 36.5601 11.8101 36.9406 11.8101 37.4101V38.5001C11.8101 38.9695 12.1906 39.3501 12.6601 39.3501H13.3301C13.7995 39.3501 14.1801 38.9695 14.1801 38.5001V37.4101C14.1801 36.9406 13.7995 36.5601 13.3301 36.5601Z" fill="#4041D1"/>
</svg>
