<svg width="117" height="48" viewBox="0 0 117 48" fill="none" xmlns="http://www.w3.org/2000/svg">
<path fill-rule="evenodd" clip-rule="evenodd" d="M61.576 22.5375C60.1431 22.5375 58.9236 22.3088 57.9175 21.8515C56.9267 21.379 56.1722 20.7388 55.6539 19.9309C55.1356 19.1077 54.8765 18.1779 54.8765 17.1413H57.5746C57.5746 17.6138 57.7041 18.0788 57.9633 18.5361C58.2224 18.9934 58.6416 19.3745 59.2209 19.6793C59.8001 19.969 60.5851 20.1138 61.576 20.1138C62.4753 20.1138 63.2146 19.9842 63.7939 19.7251C64.3884 19.4659 64.8228 19.1229 65.0972 18.6961C65.3868 18.2693 65.5317 17.7968 65.5317 17.2785C65.5317 16.6383 65.2573 16.12 64.7085 15.7237C64.1597 15.3121 63.3366 15.0606 62.2391 14.9691L60.5699 14.809C59.0303 14.6871 57.8032 14.2145 56.8886 13.3914C55.974 12.553 55.5167 11.4555 55.5167 10.0988C55.5167 9.06225 55.7606 8.16288 56.2484 7.40071C56.7514 6.63854 57.4526 6.04404 58.352 5.61722C59.2513 5.17516 60.2955 4.95413 61.4845 4.95413C62.704 4.95413 63.7634 5.17516 64.6628 5.61722C65.5621 6.04404 66.2557 6.65378 66.7435 7.44644C67.2465 8.22386 67.4981 9.15371 67.4981 10.236H64.8C64.8 9.74821 64.678 9.2909 64.4341 8.86408C64.2055 8.42202 63.8473 8.0638 63.3595 7.78942C62.8717 7.51504 62.2467 7.37785 61.4845 7.37785C60.7528 7.37785 60.1431 7.50742 59.6553 7.76655C59.1827 8.02569 58.8245 8.36105 58.5806 8.77262C58.3367 9.1842 58.2148 9.62626 58.2148 10.0988C58.2148 10.6628 58.4282 11.1659 58.855 11.6079C59.2818 12.0347 59.9373 12.2862 60.8214 12.3625L62.4677 12.4997C63.6415 12.5911 64.6552 12.8426 65.5088 13.2542C66.3777 13.6505 67.0484 14.1841 67.5209 14.8548C68.0087 15.5255 68.2526 16.3334 68.2526 17.2785C68.2526 18.315 67.9706 19.2296 67.4066 20.0223C66.8578 20.815 66.0804 21.4323 65.0744 21.8744C64.0835 22.3165 62.9174 22.5375 61.576 22.5375ZM73.3433 22.0116C74.1665 22.3622 75.1192 22.5375 76.2015 22.5375C77.2838 22.5375 78.2365 22.3622 79.0596 22.0116C79.8828 21.6457 80.5764 21.1656 81.1404 20.5711C81.7044 19.9766 82.1312 19.3059 82.4208 18.5589C82.7105 17.7968 82.8553 17.0117 82.8553 16.2038V15.7465C82.8553 14.9386 82.7028 14.1536 82.398 13.3914C82.1083 12.6292 81.6739 11.9509 81.0946 11.3564C80.5154 10.7466 79.8142 10.2665 78.991 9.91588C78.1831 9.56528 77.2533 9.38998 76.2015 9.38998C75.1497 9.38998 74.2122 9.56528 73.3891 9.91588C72.5659 10.2665 71.8647 10.7466 71.2855 11.3564C70.7215 11.9509 70.287 12.6292 69.9822 13.3914C69.6925 14.1536 69.5477 14.9386 69.5477 15.7465V16.2038C69.5477 17.0117 69.6925 17.7968 69.9822 18.5589C70.2718 19.3059 70.6986 19.9766 71.2626 20.5711C71.8266 21.1656 72.5202 21.6457 73.3433 22.0116ZM78.3508 19.6565C77.7563 20.0223 77.0399 20.2052 76.2015 20.2052C75.3631 20.2052 74.6467 20.0223 74.0522 19.6565C73.4577 19.2754 73.0004 18.7647 72.6802 18.1245C72.3754 17.4843 72.2229 16.7678 72.2229 15.9752C72.2229 15.1673 72.383 14.4432 72.7031 13.803C73.0232 13.1627 73.4805 12.6597 74.075 12.2939C74.6695 11.9128 75.3783 11.7222 76.2015 11.7222C77.0246 11.7222 77.7335 11.9128 78.328 12.2939C78.9225 12.6597 79.3798 13.1627 79.6999 13.803C80.02 14.4432 80.18 15.1673 80.18 15.9752C80.18 16.7678 80.02 17.4843 79.6999 18.1245C79.395 18.7647 78.9453 19.2754 78.3508 19.6565ZM100.938 19.7577V22.1259H103.065V14.4203C103.065 13.2618 102.859 12.3396 102.447 11.6536C102.051 10.9524 101.441 10.4418 100.618 10.1217C99.7948 9.80155 98.7583 9.6415 97.5083 9.6415C97.112 9.6415 96.6928 9.64912 96.2507 9.66436C95.8239 9.67961 95.4047 9.70247 94.9931 9.73296C94.5968 9.7482 94.231 9.77107 93.8956 9.80155V12.1109C94.2767 12.0805 94.7111 12.0576 95.1989 12.0423C95.702 12.0119 96.2126 11.989 96.7309 11.9737C97.2492 11.9585 97.7217 11.9509 98.1485 11.9509C98.9259 11.9509 99.5128 12.149 99.9091 12.5454C100.305 12.9417 100.504 13.521 100.504 14.2831V14.5118H97.6912C96.6089 14.5118 95.6791 14.6566 94.9017 14.9462C94.1243 15.2359 93.5221 15.6703 93.0953 16.2495C92.6837 16.8288 92.478 17.5605 92.478 18.4446C92.478 19.283 92.6609 20.0071 93.0267 20.6168C93.3926 21.2113 93.9108 21.6686 94.5816 21.9887C95.2523 22.2936 96.0373 22.446 96.9367 22.446C97.8056 22.446 98.5372 22.2936 99.1317 21.9887C99.7415 21.6686 100.214 21.2189 100.549 20.6397C100.707 20.3732 100.836 20.0793 100.938 19.7577ZM100.504 17.5529V16.2724H97.6226C96.8147 16.2724 96.1974 16.4706 95.7705 16.8669C95.3437 17.248 95.1303 17.751 95.1303 18.376C95.1303 19.001 95.3437 19.504 95.7705 19.8851C96.1974 20.251 96.8147 20.4339 97.6226 20.4339C98.0952 20.4339 98.5449 20.35 98.9717 20.1824C99.3985 19.9994 99.7491 19.7022 100.023 19.2906C100.313 18.879 100.473 18.2998 100.504 17.5529ZM63.4052 45.4027C61.8808 45.4027 60.5775 45.1436 59.4952 44.6253C58.4282 44.0918 57.5593 43.3982 56.8886 42.5446C56.2331 41.6757 55.7453 40.7458 55.4252 39.755C55.1204 38.7489 54.9679 37.781 54.9679 36.8511V36.3481C54.9679 35.3268 55.128 34.3131 55.4481 33.307C55.7682 32.3009 56.256 31.3863 56.9115 30.5632C57.5822 29.74 58.4434 29.0769 59.4952 28.5739C60.5623 28.0709 61.8199 27.8194 63.268 27.8194C64.7771 27.8194 66.0804 28.0861 67.1779 28.6196C68.2755 29.1532 69.1444 29.9001 69.7846 30.8604C70.4401 31.8055 70.8288 32.9259 70.9507 34.2216H68.184C68.0621 33.368 67.7724 32.6592 67.3151 32.0951C66.8731 31.5159 66.3014 31.0815 65.6002 30.7918C64.9143 30.5022 64.1369 30.3574 63.268 30.3574C62.3686 30.3574 61.5683 30.5174 60.8671 30.8376C60.1812 31.1577 59.6096 31.5997 59.1523 32.1637C58.695 32.7278 58.3444 33.3908 58.1005 34.153C57.8718 34.8999 57.7575 35.7231 57.7575 36.6225C57.7575 37.4761 57.8718 38.284 58.1005 39.0462C58.3444 39.7931 58.7026 40.4562 59.1751 41.0354C59.6477 41.6147 60.2345 42.0644 60.9357 42.3845C61.6522 42.7046 62.4753 42.8647 63.4052 42.8647C64.7466 42.8647 65.8746 42.5369 66.7892 41.8815C67.7038 41.2107 68.2602 40.258 68.4584 39.0233H71.248C71.0955 40.1971 70.6992 41.2717 70.059 42.2473C69.4187 43.2076 68.5422 43.9774 67.4295 44.5567C66.3167 45.1207 64.9753 45.4027 63.4052 45.4027ZM79.4971 44.9911V34.7246H77.6908V32.6668H79.4971H82.1724V34.7246V44.9911H79.4971ZM80.366 30.9519C79.8172 30.9519 79.4057 30.8071 79.1313 30.5174C78.8721 30.2278 78.7426 29.8544 78.7426 29.397C78.7426 28.955 78.8721 28.5891 79.1313 28.2995C79.4057 27.9946 79.8172 27.8422 80.366 27.8422C80.93 27.8422 81.3416 27.9946 81.6007 28.2995C81.8751 28.5891 82.0123 28.955 82.0123 29.397C82.0123 29.8544 81.8751 30.2278 81.6007 30.5174C81.3416 30.8071 80.93 30.9519 80.366 30.9519ZM99.6399 44.9911V34.7246H97.8336V32.6668H99.6399H102.315V34.7246V44.9911H99.6399ZM100.509 30.9519C99.9601 30.9519 99.5485 30.8071 99.2741 30.5174C99.015 30.2278 98.8854 29.8544 98.8854 29.397C98.8854 28.955 99.015 28.5891 99.2741 28.2995C99.5485 27.9946 99.9601 27.8422 100.509 27.8422C101.073 27.8422 101.484 27.9946 101.744 28.2995C102.018 28.5891 102.155 28.955 102.155 29.397C102.155 29.8544 102.018 30.2278 101.744 30.5174C101.484 30.8071 101.073 30.9519 100.509 30.9519ZM107.972 44.8768C108.764 45.2274 109.687 45.4027 110.738 45.4027C111.805 45.4027 112.766 45.2045 113.619 44.8082C114.473 44.3966 115.159 43.8326 115.677 43.1162C116.195 42.3845 116.478 41.5232 116.523 40.5324H113.917C113.871 41.0202 113.711 41.4546 113.436 41.8357C113.162 42.2016 112.796 42.4988 112.339 42.7275C111.897 42.9409 111.363 43.0476 110.738 43.0476C109.93 43.0476 109.26 42.8647 108.726 42.4988C108.208 42.133 107.819 41.6299 107.56 40.9897C107.316 40.3495 107.194 39.633 107.194 38.8404C107.194 38.0172 107.324 37.2932 107.583 36.6682C107.842 36.028 108.231 35.5249 108.749 35.1591C109.267 34.7932 109.923 34.6103 110.715 34.6103C111.63 34.6103 112.347 34.8466 112.865 35.3191C113.398 35.7917 113.711 36.3709 113.802 37.0569H116.386C116.325 36.0966 116.043 35.2582 115.54 34.5417C115.037 33.81 114.366 33.246 113.528 32.8497C112.705 32.4534 111.767 32.2552 110.715 32.2552C109.679 32.2552 108.772 32.4381 107.995 32.804C107.232 33.1546 106.592 33.6347 106.074 34.2445C105.556 34.8542 105.167 35.5402 104.908 36.3023C104.649 37.0493 104.519 37.8267 104.519 38.6346V39.0462C104.519 39.8236 104.641 40.5934 104.885 41.3556C105.144 42.1025 105.525 42.7884 106.028 43.4134C106.546 44.0232 107.194 44.511 107.972 44.8768ZM85.245 32.6668V44.9911H87.9203V37.6971C87.9203 36.7978 88.187 36.0813 88.7206 35.5478C89.2541 34.999 89.9553 34.7247 90.8242 34.7247C91.6778 34.7247 92.3485 34.9914 92.8363 35.5249C93.3241 36.0432 93.568 36.7292 93.568 37.5828V44.9911H96.2432V37.9486C96.2432 36.1042 95.8697 34.7018 95.1228 33.7414C94.3759 32.7811 93.2402 32.3009 91.7159 32.3009H91.6016C90.6108 32.3009 89.78 32.522 89.1093 32.964C88.4386 33.3909 87.9355 34.0235 87.6002 34.8618C87.5117 35.0935 87.4355 35.3396 87.3715 35.6003V32.6668H85.245ZM73.1886 30.3574V44.9911H75.8867V30.3574V28.2995H73.1886H71.5652V30.3574H73.1886ZM84.9985 22.1259V9.80155H87.125V13.5664C87.2817 12.4747 87.64 11.6161 88.1997 10.9905C88.9771 10.1064 90.128 9.66436 91.6523 9.66436H92.0867V12.0195H91.2636C90.1051 12.0195 89.2133 12.332 88.5884 12.957C87.9786 13.5667 87.6738 14.4432 87.6738 15.5865V22.1259H84.9985ZM110.917 12.2767C111.398 12.4914 111.951 12.5987 112.575 12.5987C113.199 12.5987 113.747 12.4914 114.22 12.2767C114.701 12.053 115.102 11.7623 115.423 11.4045C115.744 11.0377 115.985 10.6352 116.145 10.1968C116.306 9.75847 116.386 9.32014 116.386 8.8818V8.6671C116.386 8.21087 116.301 7.76806 116.132 7.33866C115.972 6.90032 115.726 6.50224 115.397 6.14441C115.076 5.78658 114.679 5.50479 114.206 5.29904C113.734 5.08434 113.19 4.977 112.575 4.977C111.96 4.977 111.416 5.08434 110.944 5.29904C110.471 5.50479 110.07 5.78658 109.74 6.14441C109.42 6.50224 109.174 6.90032 109.005 7.33866C108.845 7.76806 108.764 8.21087 108.764 8.6671V8.8818C108.764 9.32014 108.845 9.75847 109.005 10.1968C109.165 10.6352 109.406 11.0377 109.727 11.4045C110.048 11.7623 110.445 12.053 110.917 12.2767ZM114.18 11.485C113.725 11.7623 113.19 11.901 112.575 11.901C111.96 11.901 111.421 11.7623 110.957 11.485C110.503 11.1987 110.146 10.823 109.888 10.3578C109.638 9.88372 109.513 9.36039 109.513 8.78787C109.513 8.19745 109.638 7.66965 109.888 7.20448C110.146 6.73035 110.503 6.35911 110.957 6.09074C111.421 5.81342 111.96 5.67476 112.575 5.67476C113.19 5.67476 113.725 5.81342 114.18 6.09074C114.643 6.35911 115 6.73035 115.249 7.20448C115.508 7.66965 115.637 8.19745 115.637 8.78787C115.637 9.36039 115.508 9.88372 115.249 10.3578C115 10.823 114.643 11.1987 114.18 11.485ZM111.078 6.62748V10.7872H111.947V9.47221H112.535C112.542 9.47221 112.549 9.47219 112.555 9.47215L113.525 10.7872H114.527L113.405 9.32974C113.55 9.27326 113.679 9.19998 113.792 9.10991C114.104 8.85943 114.26 8.50608 114.26 8.04985C114.26 7.59361 114.104 7.24473 113.792 7.0032C113.489 6.75272 113.07 6.62748 112.535 6.62748H111.947H111.492H111.078ZM111.947 7.39234V8.72077H112.629C112.878 8.72077 113.065 8.6671 113.19 8.55975C113.324 8.44346 113.391 8.27796 113.391 8.06326C113.391 7.83068 113.324 7.66071 113.19 7.55336C113.065 7.44601 112.878 7.39234 112.629 7.39234H111.947Z" fill="#F6F7FF"/>
<path fill-rule="evenodd" clip-rule="evenodd" d="M23.6274 23.6274V11.8137C23.6274 5.28917 28.9166 0 35.4411 0C41.9656 0 47.2548 5.28917 47.2548 11.8137V23.6274C42.433 23.6274 38.1484 20.5519 36.6058 15.9835L35.4411 12.534L34.2763 15.9835C32.7338 20.5519 28.4492 23.6274 23.6274 23.6274ZM23.6274 23.6274H35.4411C41.9656 23.6274 47.2548 28.9166 47.2548 35.4411C47.2548 41.9656 41.9656 47.2548 35.4411 47.2548H23.6274C23.6274 42.433 26.7029 38.1484 31.2713 36.6058L34.7207 35.4411L31.2713 34.2763C26.7029 32.7338 23.6274 28.4492 23.6274 23.6274ZM23.6274 23.6274V35.4411C23.6274 41.9656 18.3382 47.2548 11.8137 47.2548C5.28917 47.2548 0 41.9656 0 35.4411V23.6274C4.82179 23.6274 9.10636 26.7029 10.6489 31.2713L11.8137 34.7207L12.9784 31.2713C14.521 26.7029 18.8056 23.6274 23.6274 23.6274ZM15.9835 12.9784C20.5519 14.521 23.6274 18.8056 23.6274 23.6274L11.8137 23.6274C5.28917 23.6274 0 18.3382 0 11.8137C0 5.28917 5.28917 0 11.8137 0H23.6274C23.6274 4.82179 20.5519 9.10636 15.9835 10.6489L12.534 11.8137L15.9835 12.9784Z" fill="#F6F7FF"/>
</svg>
