<svg width="64" height="64" viewBox="0 0 64 64" fill="none" xmlns="http://www.w3.org/2000/svg">
<path d="M32 38.8101C25.8588 38.8269 19.7208 38.5298 13.61 37.9201C12.9173 37.8347 12.2145 37.8954 11.5466 38.098C10.8788 38.3007 10.2608 38.6409 9.73233 39.0968C9.20391 39.5527 8.77677 40.1142 8.47842 40.7451C8.18006 41.376 8.01709 42.0624 8 42.7601V42.8101C8 50.1001 18.75 56.0001 32 56.0001C45.25 56.0001 56 50.1001 56 42.8101V42.7601C55.9829 42.0624 55.8199 41.376 55.5216 40.7451C55.2232 40.1142 54.7961 39.5527 54.2677 39.0968C53.7392 38.6409 53.1212 38.3007 52.4534 38.098C51.7855 37.8954 51.0827 37.8347 50.39 37.9201C44.2792 38.5298 38.1412 38.8269 32 38.8101Z" fill="#BCBCFF"/>
<path d="M50.39 37.9201C44.2792 38.5298 38.1412 38.8269 32 38.8101C27.43 38.8101 23.06 38.6601 19 38.3801C19.71 39.6801 18.63 42.1701 19.41 43.4401L24.77 52.1601C25.0852 52.6996 25.5191 53.1601 26.039 53.5066C26.5588 53.8532 27.1508 54.0767 27.77 54.1601C28.322 54.216 28.8796 54.1532 29.4054 53.9759C29.9312 53.7986 30.4129 53.5108 30.8183 53.132C31.2237 52.7531 31.5433 52.2919 31.7557 51.7793C31.9682 51.2668 32.0685 50.7147 32.05 50.1601L32 46.8801C31.9504 46.0922 32.2134 45.3165 32.7319 44.7213C33.2505 44.126 33.9828 43.7591 34.77 43.7001C35.1719 43.6807 35.5735 43.7445 35.9496 43.8876C36.3256 44.0306 36.6681 44.2499 36.9554 44.5316C37.2427 44.8133 37.4687 45.1513 37.6192 45.5245C37.7697 45.8977 37.8415 46.2979 37.83 46.7001L37.68 50.0001C37.6456 50.8953 37.9128 51.7761 38.4386 52.5014C38.9644 53.2266 39.7185 53.7544 40.58 54.0001C41.385 54.2098 42.236 54.1559 43.0081 53.8463C43.7803 53.5368 44.4328 52.9878 44.87 52.2801L50.37 43.3401C50.89 42.5001 51.45 41.7001 52.04 40.9101C52.2541 40.6229 52.3816 40.2805 52.4076 39.9232C52.4336 39.5659 52.357 39.2087 52.1868 38.8935C52.0166 38.5783 51.7598 38.3183 51.4468 38.144C51.1338 37.9698 50.7776 37.8887 50.42 37.9101L50.39 37.9201Z" fill="#4041D1"/>
<path d="M10.7299 24.5999C11.0883 22.5 11.9951 20.5321 13.3585 18.8954C14.722 17.2587 16.4937 16.0113 18.4942 15.2795C20.4948 14.5477 22.6532 14.3575 24.7509 14.7281C26.8486 15.0987 28.8112 16.0169 30.4399 17.3899C30.8747 17.7617 31.4279 17.966 31.9999 17.966C32.572 17.966 33.1252 17.7617 33.5599 17.3899C35.8436 15.4984 38.7429 14.5121 41.7063 14.6187C44.6697 14.7252 47.4906 15.9171 49.6325 17.9677C51.7745 20.0183 53.0882 22.7846 53.3237 25.7406C53.5592 28.6965 52.7002 31.636 50.9099 33.9999C49.7033 35.4809 48.5783 37.0265 47.5399 38.6299L41.9999 47.5999C41.6519 48.165 41.165 48.6317 40.5856 48.9555C40.0063 49.2793 39.3537 49.4495 38.6899 49.4499C38.1697 49.4501 37.6547 49.3459 37.1754 49.1436C36.6962 48.9413 36.2624 48.6449 35.8997 48.2719C35.537 47.899 35.2528 47.4571 35.0639 46.9723C34.875 46.4876 34.7852 45.9699 34.7999 45.4499L34.9999 41.9999C35.011 41.6029 34.9409 41.2079 34.7941 40.8389C34.6472 40.4699 34.4266 40.1348 34.1458 39.854C33.865 39.5732 33.5299 39.3526 33.1609 39.2058C32.792 39.0589 32.3969 38.9888 31.9999 38.9999C31.6097 38.9997 31.2233 39.0778 30.8637 39.2296C30.5041 39.3813 30.1786 39.6035 29.9064 39.8832C29.6342 40.1629 29.4208 40.4943 29.2788 40.8579C29.1369 41.2214 29.0692 41.6097 29.0799 41.9999L29.1899 45.4299C29.2047 45.9499 29.1149 46.4676 28.926 46.9523C28.7371 47.437 28.4529 47.879 28.0902 48.2519C27.7275 48.6249 27.2937 48.9213 26.8144 49.1236C26.3352 49.3259 25.8202 49.4301 25.2999 49.4299C24.6398 49.4299 23.9905 49.262 23.4132 48.9418C22.8359 48.6217 22.3495 48.1599 21.9999 47.5999L16.5399 38.7399C15.4956 37.1535 14.3708 35.6215 13.1699 34.1499C12.1103 32.8216 11.3448 31.2833 10.9241 29.637C10.5035 27.9906 10.4373 26.2737 10.7299 24.5999Z" fill="#EBEEF2"/>
<path d="M32 38.9999C32.397 38.9889 32.792 39.0589 33.161 39.2058C33.53 39.3527 33.8651 39.5732 34.1459 39.854C34.4267 40.1348 34.6473 40.47 34.7941 40.8389C34.941 41.2079 35.0111 41.6029 35 41.9999L34.89 45.4299C34.8927 46.2612 35.1616 47.0697 35.6573 47.737C36.153 48.4043 36.8494 48.8953 37.6445 49.1379C38.4395 49.3806 39.2914 49.3622 40.0752 49.0854C40.8591 48.8086 41.5336 48.288 42 47.5999L47.5 38.6599C47.6 38.4899 47.72 38.3299 47.83 38.1599C42.98 38.5799 37.61 38.8099 31.96 38.8099C26.31 38.8099 20.96 38.5799 16.15 38.1599C16.29 38.3599 16.41 38.5599 16.52 38.7399L22 47.5999C22.4496 48.3296 23.1275 48.8903 23.9285 49.1951C24.7295 49.4999 25.6088 49.5316 26.4296 49.2853C27.2505 49.039 27.9671 48.5286 28.4681 47.8332C28.969 47.1379 29.2263 46.2965 29.2 45.4399L29.11 41.9999C29.0994 41.6123 29.1661 41.2264 29.3061 40.8648C29.4462 40.5033 29.657 40.1732 29.926 39.8939C30.195 39.6147 30.517 39.3918 30.8731 39.2383C31.2292 39.0848 31.6123 39.0038 32 38.9999Z" fill="#DCDFE2"/>
<path d="M40.6 20.69L39.21 21.35C38.6385 21.611 38.0081 21.7161 37.3828 21.6547C36.7576 21.5932 36.1597 21.3673 35.65 21L31 17.73C31.416 17.9254 31.8793 17.9972 32.3349 17.9369C32.7904 17.8766 33.2191 17.6868 33.57 17.39C34.405 16.685 35.3339 16.0994 36.33 15.65C37.0855 15.3129 37.9161 15.1799 38.7391 15.2641C39.562 15.3483 40.3485 15.6469 41.02 16.13C41.3973 16.3991 41.6974 16.7623 41.8905 17.1836C42.0836 17.6048 42.1628 18.0693 42.1203 18.5307C42.0778 18.9922 41.915 19.4344 41.6483 19.8133C41.3815 20.1921 41.0201 20.4945 40.6 20.69Z" fill="#DCDFE2"/>
<path d="M17.82 23C17.5203 22.9989 17.2277 22.9087 16.9795 22.7409C16.7312 22.573 16.5385 22.335 16.4259 22.0573C16.3133 21.7796 16.2859 21.4746 16.3472 21.1813C16.4085 20.8879 16.5557 20.6194 16.77 20.41C18.3235 18.8691 20.422 18.0032 22.61 18C22.8215 17.9755 23.0358 17.9961 23.2389 18.0603C23.4419 18.1245 23.629 18.2309 23.788 18.3726C23.947 18.5142 24.0742 18.6879 24.1613 18.8822C24.2485 19.0765 24.2935 19.2871 24.2935 19.5C24.2935 19.7129 24.2485 19.9235 24.1613 20.1178C24.0742 20.3121 23.947 20.4857 23.788 20.6274C23.629 20.769 23.4419 20.8755 23.2389 20.9397C23.0358 21.0039 22.8215 21.0245 22.61 21C21.2127 20.9988 19.8703 21.5444 18.87 22.52C18.7361 22.6663 18.5741 22.7841 18.3937 22.8666C18.2134 22.9491 18.0182 22.9944 17.82 23Z" fill="white"/>
<path d="M15.75 27.89C15.3495 27.89 14.9655 27.7309 14.6823 27.4477C14.3991 27.1645 14.24 26.7805 14.24 26.38C14.2301 26.3036 14.2301 26.2263 14.24 26.15C14.2985 25.7803 14.4922 25.4455 14.7836 25.2105C15.0749 24.9756 15.4432 24.8572 15.8169 24.8784C16.1906 24.8996 16.5431 25.0588 16.806 25.3251C17.069 25.5915 17.2236 25.946 17.24 26.32V26.39C17.24 26.7861 17.0834 27.1661 16.8042 27.4471C16.5251 27.7281 16.1461 27.8873 15.75 27.89Z" fill="white"/>
</svg>
