<svg width="64" height="64" viewBox="0 0 64 64" fill="none" xmlns="http://www.w3.org/2000/svg">
<path d="M36.3799 17.87H11.0999C10.2493 17.9013 9.44568 18.2681 8.86477 18.8902C8.28385 19.5124 7.9729 20.3392 7.99991 21.19V27.61C8.00029 28.2915 8.20548 28.9572 8.58886 29.5207C8.97224 30.0842 9.51611 30.5194 10.1499 30.77C11.3406 31.303 12.3516 32.1692 13.061 33.264C13.7704 34.3588 14.1479 35.6354 14.1479 36.94C14.1479 38.2445 13.7704 39.5212 13.061 40.616C12.3516 41.7108 11.3406 42.577 10.1499 43.11C9.5169 43.3588 8.97337 43.7922 8.58994 44.354C8.20651 44.9157 8.00093 45.5799 7.99991 46.26V52.68C7.9729 53.5308 8.28385 54.3576 8.86477 54.9797C9.44568 55.6019 10.2493 55.9687 11.0999 56H36.3799V17.87Z" fill="#EBEEF2"/>
<path d="M22.51 17.87C25.8272 17.8832 29.0039 19.2102 31.3448 21.5605C33.6857 23.9108 35 27.0928 35 30.41V43.47C35 46.7862 33.6854 49.9672 31.3442 52.3159C29.003 54.6646 25.8262 55.9894 22.51 56H36.38V17.87H22.51Z" fill="#DCDFE2"/>
<path d="M52.6799 17.87H39.6799V56H52.6799C53.5605 56 54.4049 55.6502 55.0275 55.0276C55.6501 54.405 55.9999 53.5605 55.9999 52.68V46.26C55.9861 45.5624 55.758 44.8859 55.3465 44.3224C54.9351 43.7589 54.3602 43.3356 53.6999 43.11C52.4441 42.6388 51.362 41.7957 50.5981 40.6931C49.8342 39.5906 49.4249 38.2813 49.4249 36.94C49.4249 35.5987 49.8342 34.2893 50.5981 33.1868C51.362 32.0843 52.4441 31.2412 53.6999 30.77C54.361 30.5426 54.9362 30.1174 55.3476 29.5522C55.759 28.987 55.9867 28.309 55.9999 27.61V21.19C55.9999 20.3095 55.6501 19.465 55.0275 18.8424C54.4049 18.2198 53.5605 17.87 52.6799 17.87Z" fill="#BCBCFF"/>
<path d="M52.6799 17.87C54.5099 17.87 55.9999 19.36 55.9999 21.87V21.17C55.9946 20.2929 55.6425 19.4536 55.0205 18.8353C54.3984 18.217 53.557 17.87 52.6799 17.87Z" fill="#BCBCFF"/>
<path d="M38.3801 17.87H36.0901V56H38.3801V17.87Z" fill="#DCDFE2"/>
<path d="M40.9999 17.87H38.3899V56H40.9999V17.87Z" fill="#4041D1"/>
<path d="M22.91 32.8C22.91 33.2865 22.7657 33.7621 22.4954 34.1667C22.2251 34.5712 21.8409 34.8865 21.3914 35.0727C20.9419 35.2589 20.4473 35.3076 19.9701 35.2127C19.4929 35.1178 19.0545 34.8835 18.7105 34.5394C18.3665 34.1954 18.1322 33.7571 18.0373 33.2799C17.9423 32.8027 17.9911 32.3081 18.1772 31.8586C18.3634 31.4091 18.6787 31.0249 19.0833 30.7546C19.4878 30.4842 19.9635 30.34 20.45 30.34C21.1024 30.34 21.7281 30.5991 22.1895 31.0605C22.6508 31.5218 22.91 32.1475 22.91 32.8Z" fill="white"/>
<path d="M31.19 41.08C31.19 41.5665 31.0457 42.0422 30.7754 42.4467C30.5051 42.8512 30.1209 43.1665 29.6714 43.3527C29.2219 43.5389 28.7273 43.5876 28.2501 43.4927C27.7729 43.3978 27.3346 43.1635 26.9905 42.8195C26.6465 42.4754 26.4122 42.0371 26.3173 41.5599C26.2224 41.0827 26.2711 40.5881 26.4573 40.1386C26.6435 39.6891 26.9588 39.3049 27.3633 39.0346C27.7679 38.7643 28.2435 38.62 28.73 38.62C29.3825 38.62 30.0082 38.8792 30.4695 39.3405C30.9308 39.8019 31.19 40.4276 31.19 41.08Z" fill="white"/>
<path d="M20.2801 42.3601C19.9853 42.3595 19.7021 42.2449 19.4901 42.0401C19.2843 41.8306 19.1689 41.5487 19.1689 41.2551C19.1689 40.9614 19.2843 40.6795 19.4901 40.4701L28.1201 31.84C28.2232 31.737 28.3456 31.6552 28.4802 31.5994C28.6149 31.5436 28.7593 31.5149 28.9051 31.5149C29.0509 31.5149 29.1952 31.5436 29.3299 31.5994C29.4646 31.6552 29.587 31.737 29.6901 31.84C29.7932 31.9431 29.8749 32.0655 29.9307 32.2002C29.9865 32.3349 30.0152 32.4793 30.0152 32.625C30.0152 32.7708 29.9865 32.9152 29.9307 33.0499C29.8749 33.1846 29.7932 33.307 29.6901 33.41L21.0601 42C20.9605 42.1089 20.8403 42.1968 20.7063 42.2586C20.5724 42.3204 20.4275 42.3549 20.2801 42.3601Z" fill="white"/>
</svg>
